<?xml version="1.0" encoding="UTF-8" standalone="no"?>
<!-- Created with Inkscape (http://www.inkscape.org/) -->

<svg
   xmlns:dc="http://purl.org/dc/elements/1.1/"
   xmlns:cc="http://creativecommons.org/ns#"
   xmlns:rdf="http://www.w3.org/1999/02/22-rdf-syntax-ns#"
   xmlns:svg="http://www.w3.org/2000/svg"
   xmlns="http://www.w3.org/2000/svg"
   xmlns:sodipodi="http://sodipodi.sourceforge.net/DTD/sodipodi-0.dtd"
   xmlns:inkscape="http://www.inkscape.org/namespaces/inkscape"
   version="1.1"
   id="svg2"
   xml:space="preserve"
   width="258.66666"
   height="258.66666"
   viewBox="0 0 258.66666 258.66666"
   sodipodi:docname="minerva.svg"
   inkscape:version="0.92.5 (2060ec1f9f, 2020-04-08)"><metadata
     id="metadata8"><rdf:RDF><cc:Work
         rdf:about=""><dc:format>image/svg+xml</dc:format><dc:type
           rdf:resource="http://purl.org/dc/dcmitype/StillImage" /><dc:title></dc:title></cc:Work></rdf:RDF></metadata><defs
     id="defs6" /><sodipodi:namedview
     pagecolor="#ffffff"
     bordercolor="#666666"
     borderopacity="1"
     objecttolerance="10"
     gridtolerance="10"
     guidetolerance="10"
     inkscape:pageopacity="0"
     inkscape:pageshadow="2"
     inkscape:window-width="1920"
     inkscape:window-height="1200"
     id="namedview4"
     showgrid="false"
     inkscape:zoom="0.91237117"
     inkscape:cx="180.29943"
     inkscape:cy="129.33333"
     inkscape:window-x="1920"
     inkscape:window-y="0"
     inkscape:window-maximized="0"
     inkscape:current-layer="g10" /><g
     id="g10"
     inkscape:groupmode="layer"
     inkscape:label="ink_ext_XXXXXX"
     transform="matrix(1.3333333,0,0,-1.3333333,0,258.66667)"><g
       id="g12"
       transform="scale(0.1)"><path
         d="M 2.59766,1933.23 H 1930.16 V 5.66797 H 2.59766 V 1933.23"
         style="fill:#ffffff;fill-opacity:1;fill-rule:evenodd;stroke:none"
         id="path14"
         inkscape:connector-curvature="0" /><path
         d="m 188.48,970.422 c 0,427.308 349.618,778.868 778.872,778.868 429.248,0 778.858,-351.56 778.858,-778.868 0,-429.254 -349.61,-780.809 -778.858,-780.809 -429.254,0 -778.872,351.555 -778.872,780.809 z m -23.304,0 c 0,-442.848 359.328,-802.176 802.176,-802.176 440.898,0 800.228,359.328 800.228,802.176 0,440.898 -359.33,800.228 -800.228,800.228 -442.848,0 -802.176,-359.33 -802.176,-800.228"
         style="fill:#2f8375;fill-opacity:1;fill-rule:evenodd;stroke:none"
         id="path16"
         inkscape:connector-curvature="0" /><path
         d="m 188.48,970.422 c 0,427.308 349.618,778.868 778.872,778.868 429.248,0 778.858,-351.56 778.858,-778.868 0,-429.254 -349.61,-780.809 -778.858,-780.809 -429.254,0 -778.872,351.555 -778.872,780.809 z m -23.304,0 c 0,-442.848 359.328,-802.176 802.176,-802.176 440.898,0 800.228,359.328 800.228,802.176 0,440.898 -359.33,800.228 -800.228,800.228 -442.848,0 -802.176,-359.33 -802.176,-800.228 z"
         style="fill:none;stroke:#2f8375;stroke-width:10.78979969;stroke-linecap:round;stroke-linejoin:round;stroke-miterlimit:2.61310005;stroke-dasharray:none;stroke-opacity:1"
         id="path18"
         inkscape:connector-curvature="0" /><path
         d="m 1493.71,838.344 c -23.3,-19.422 -54.38,-19.422 -77.69,-36.903 -11.65,-11.656 -9.71,-23.308 -3.88,-38.847 9.71,-17.481 3.88,-15.539 -7.77,-21.367 -29.14,-9.711 -29.14,-40.789 -66.04,-36.907 -1.94,0 -9.71,3.887 -5.83,-1.937 3.89,-5.828 5.83,-1.945 13.6,-1.945 13.6,-1.942 17.48,3.882 27.19,9.71 13.6,11.657 11.66,15.54 27.2,23.313 3.88,0 13.59,1.937 19.42,1.937 1.94,-3.882 1.94,-3.882 1.94,-7.765 0,-7.774 -13.6,-15.543 -19.42,-17.485 7.77,-5.828 19.42,-13.593 17.48,-21.363 -1.95,-3.887 -1.95,-5.824 -7.77,-7.769 -5.83,-3.883 -21.37,-3.883 -34.96,7.769 -1.95,-1.941 -3.89,3.883 -9.72,-1.941 13.6,-13.598 31.08,-9.711 33.03,-13.598 3.88,-1.941 -9.72,-19.422 -9.72,-21.367 -7.77,-25.246 1.95,-46.613 -1.94,-69.922 -1.94,-19.422 -7.77,-29.133 -25.25,-40.789 -31.08,-21.363 -52.44,-27.191 -87.4,-33.02 -89.35,-5.824 -147.62,25.254 -211.72,73.809 -66.034,48.559 -91.284,73.809 -110.706,101.004 0,11.652 7.769,19.422 0,33.016 -5.828,-3.887 -3.883,-11.657 -7.77,-15.539 -5.828,-7.77 -17.484,-11.653 -27.191,-11.653 -25.25,9.711 -27.191,40.789 -42.73,58.27 -36.907,34.961 -46.618,87.406 -29.137,130.136 7.769,13.598 19.422,25.25 34.961,31.075 15.539,1.941 34.961,1.941 44.672,-15.539 13.597,-11.653 21.367,-31.079 25.254,-48.559 5.824,-9.707 -1.942,-17.477 7.769,-25.246 15.539,-1.945 29.129,-5.828 42.728,3.883 11.65,-1.942 11.65,-13.594 21.37,-19.422 l 13.59,-7.77 c 15.54,-7.773 36.91,-7.773 50.5,3.883 25.25,25.25 19.43,52.442 27.19,79.637 23.31,21.363 38.85,50.5 38.85,79.637 -1.94,19.421 -7.77,36.898 -17.48,56.32 1.94,9.71 7.77,17.48 9.71,27.2 3.89,0 7.77,0 9.71,1.94 27.2,5.82 50.5,29.13 62.16,54.38 l 1.94,1.94 c 29.13,1.95 67.98,13.6 83.52,44.68 3.88,13.59 19.42,3.88 29.13,5.82 15.54,1.95 33.02,9.72 42.73,19.43 5.83,1.94 7.77,-1.94 9.72,-3.88 5.82,-23.31 19.42,-44.68 27.19,-69.93 9.71,-17.48 11.65,-34.96 9.71,-52.44 1.94,-27.19 19.42,-54.386 31.08,-83.523 9.71,-29.133 29.13,-60.211 40.78,-89.344 1.95,-11.656 7.77,-21.367 0,-33.019 z m 5.83,52.445 c -21.36,48.555 -44.67,89.34 -62.15,139.841 -13.6,17.48 -5.83,36.91 -7.77,56.33 -7.77,27.19 -19.42,50.5 -31.08,79.64 -3.88,7.76 5.83,9.7 7.77,17.47 5.83,13.6 1.94,29.14 -3.88,44.68 -3.89,7.77 5.82,11.65 3.88,19.42 0,13.6 -9.71,23.31 -19.42,29.13 -13.6,19.43 -19.43,29.14 -34.96,46.62 v 3.89 c 7.77,5.82 13.59,19.42 13.59,31.07 -1.94,11.66 -5.82,23.31 -17.48,31.08 -19.42,11.65 -36.9,-5.83 -52.44,-13.6 -5.83,-3.88 -7.77,-5.82 -13.6,-5.82 -1.94,1.94 -7.77,1.94 -11.65,3.88 -3.89,-3.88 -7.77,-7.77 -13.59,-13.6 l 17.47,-5.82 c 1.95,-1.95 1.95,-1.95 1.95,-3.89 v 0 c -1.95,-1.94 -42.73,-36.9 -42.73,-36.9 l -73.81,-73.81 -21.37,-21.36 -66.04,-75.75 c -34.96,-38.85 -85.457,-104.89 -116.535,-153.446 -15.539,-21.367 -31.078,-44.672 -46.617,-67.981 0,-1.945 -3.883,-1.945 -7.769,-1.945 -3.883,0 -7.766,0 -9.707,0 v 0 0 0 c -17.485,-3.883 -29.137,-7.77 -40.793,-19.422 -19.418,-19.422 -27.188,-44.672 -27.188,-69.922 0,-19.422 3.883,-36.906 13.594,-56.328 -3.887,-9.711 -13.594,-19.422 -19.422,-27.191 l -3.887,-3.887 -5.824,-3.883 c -1.945,-3.887 -5.828,-7.769 -9.715,-11.652 v 0 c 0,-1.945 0,-3.887 1.942,-5.828 h 1.945 1.941 c 15.539,3.883 25.25,15.539 33.02,27.191 l 7.765,7.77 c 1.946,0 1.946,0 5.829,-1.942 0,0 1.941,-1.941 1.941,-3.883 v 0 c 0,0 0,-3.886 0,-5.828 -36.898,-36.906 -67.98,-56.328 -104.879,-79.633 l -7.773,-3.886 h 7.773 c 15.535,-1.942 29.129,5.824 42.727,15.539 l 17.484,7.765 c 15.539,7.77 31.074,19.422 44.668,33.02 l 13.598,9.715 c 1.941,0 3.886,0 3.886,-1.945 0,0 0,0 1.942,-1.942 l 11.656,-23.308 c -1.945,-11.653 -1.945,-23.305 -1.945,-33.02 0,-23.309 3.886,-46.613 9.715,-69.922 3.882,-23.308 9.707,-46.617 9.707,-69.922 0,0 0,-1.941 0,-3.886 0,-7.77 -7.766,-17.481 -15.536,-19.422 -13.597,-1.942 -31.078,-1.942 -50.5,-1.942 -23.308,0 -46.617,-1.945 -66.043,-5.828 -5.824,-1.941 -11.652,-3.887 -19.417,-5.828 -5.829,-1.941 -13.598,-3.887 -17.485,-3.887 h -1.941 -1.942 L 726.5,484.84 c -1.941,-1.942 -3.883,-3.883 -3.883,-5.828 -1.941,0 -1.941,0 -1.941,0 0,-3.883 1.941,-5.824 3.883,-5.824 1.941,-1.942 1.941,-1.942 3.886,-1.942 5.828,0 11.653,1.942 19.426,3.883 1.942,1.945 7.77,3.883 11.652,3.883 38.844,7.769 79.633,5.828 108.766,1.945 13.598,1.941 36.906,1.941 44.676,21.367 3.883,7.766 3.883,15.539 3.883,23.309 0,7.769 0,15.535 -1.942,23.305 l -3.883,19.421 c 0,11.657 -1.945,23.309 -5.828,34.965 -3.886,21.364 -7.769,42.731 -7.769,64.094 0,3.887 0,5.828 0,11.652 h 1.945 c 1.938,1.946 1.938,0 3.883,-1.937 3.883,-1.945 5.824,-3.887 7.769,-3.887 1.942,-1.941 5.825,-1.941 7.77,-1.941 3.883,0 5.824,-1.942 5.824,-3.887 1.942,-19.422 7.77,-38.848 15.539,-56.328 3.887,-13.594 7.77,-27.192 9.715,-40.785 5.824,-21.367 11.652,-44.672 11.652,-66.039 0,-13.598 -1.941,-27.192 -5.828,-40.789 -9.711,-17.481 -33.019,-17.481 -52.441,-19.422 h -7.77 l -50.504,3.883 c -44.671,3.886 -87.402,7.769 -134.015,0 l -11.652,-1.942 c -5.829,0 -11.657,-1.941 -17.485,0 -1.937,1.942 -1.937,3.887 -1.937,7.77 0,1.941 0,1.941 0,3.886 7.765,17.477 11.652,33.016 11.652,48.555 0,11.656 -1.945,23.309 -7.77,31.078 -11.656,23.305 -25.25,38.844 -40.789,50.5 -19.421,19.422 -36.902,36.903 -52.445,56.324 -7.769,0 -13.598,1.946 -15.539,1.946 v 0 l -9.711,-9.715 c 11.652,-11.652 21.367,-21.363 34.961,-34.957 19.426,-9.715 34.965,-29.141 48.559,-42.731 17.484,-19.425 21.367,-40.789 17.484,-64.097 -1.945,-27.196 -27.195,-38.848 -44.676,-58.274 -5.824,-13.593 -11.652,-29.133 0,-42.726 3.883,-15.539 31.074,-13.598 34.961,-25.25 7.77,-31.078 58.27,-48.559 69.922,-48.559 9.715,-1.941 19.426,-11.652 19.426,-11.652 21.367,-15.543 46.613,-11.656 62.156,-9.715 13.594,1.945 38.844,-9.711 54.383,-7.77 25.25,9.715 44.672,5.829 69.922,7.77 77.693,0 165.093,0 244.733,-9.711 15.54,1.941 33.02,-7.77 46.61,-1.941 1.95,5.824 0,11.652 0,15.539 -38.84,60.211 -44.67,126.246 -23.3,192.289 h 15.53 c 50.5,-5.828 97.12,0 149.56,31.078 27.2,13.594 40.79,48.555 38.85,71.863 0,15.539 -5.83,34.961 -3.88,50.5 1.94,7.77 5.82,19.422 13.59,23.309 1.94,1.941 11.65,7.765 15.54,15.539 5.83,15.539 -5.83,21.363 -9.71,23.304 9.71,1.942 17.48,21.368 9.71,33.02 -5.83,5.828 -11.66,27.195 -11.66,33.02 -1.94,9.71 -1.94,19.425 5.83,27.195 21.37,9.711 40.79,11.656 62.16,21.363 15.53,5.828 23.3,21.367 23.3,34.961 z M 656.578,405.207 c -1.941,-3.883 -1.941,-7.769 -1.941,-13.598 -1.946,-3.882 -9.715,0 -11.653,1.946 -9.714,5.824 -9.714,1.941 -11.656,11.652 0,5.824 0,11.652 7.77,15.539 7.769,3.883 17.48,7.766 23.308,0 0,-3.887 -5.828,-9.715 -5.828,-15.539 z m 52.442,-64.098 c -13.594,0 -21.364,5.825 -27.192,21.368 -5.828,17.48 -7.765,33.019 -3.883,52.441 1.946,1.941 3.883,3.883 5.828,1.941 l 17.477,7.77 c 3.887,1.941 9.715,1.941 15.539,0 l 1.945,-3.883 c 0,-9.715 -1.945,-15.539 -1.945,-25.25 0,-23.308 -3.887,-29.137 3.887,-50.5 -1.942,-5.828 -7.774,-3.887 -11.656,-3.887 z m 691.47,846.851 c -1.95,-1.94 -3.89,-3.89 -7.77,-3.89 -5.83,5.83 -3.89,9.72 -1.95,15.54 0,1.94 0,1.94 1.95,1.94 3.88,0 5.82,-1.94 5.82,-1.94 1.95,-3.88 1.95,-7.77 1.95,-11.65 z M 922.676,912.148 c 40.789,73.809 91.284,137.902 143.734,205.892 l 75.75,83.51 c 52.44,58.28 112.65,116.54 178.69,161.22 7.77,3.88 11.65,15.54 19.42,7.77 l 7.77,-7.77 c 5.83,-5.83 1.94,-21.37 -3.88,-27.19 -3.89,-1.95 -7.77,-5.83 -11.66,-9.72 11.66,-13.59 31.08,-36.9 46.62,-52.44 5.83,-5.83 3.88,-13.59 15.54,-19.42 5.83,-1.95 7.77,-9.71 3.88,-15.54 -9.71,-13.6 -27.19,-9.71 -42.73,-13.6 -50.5,-11.65 -93.23,-27.19 -149.56,-54.38 -44.67,-25.25 -81.57,-50.5 -114.59,-93.23 -13.6,-15.54 -27.2,-27.2 -38.85,-44.68 -29.13,-38.843 -52.44,-75.746 -75.751,-116.535 -9.707,-11.656 -11.653,-17.48 -23.305,-29.133 -5.828,-5.828 -11.656,5.825 -15.539,9.711 0,1.942 0,1.942 0,1.942 -1.942,0 -3.887,0 -5.828,0 -1.942,5.824 -11.657,7.769 -9.711,13.593 z m 452.554,285.522 c 0,-13.6 -19.42,-25.25 -34.96,-29.13 -5.82,-1.94 -13.59,-1.94 -19.42,-1.94 -1.94,1.94 -1.94,1.94 -1.94,3.88 0,7.77 1.94,11.65 1.94,17.48 l 3.89,1.94 c 15.53,3.89 31.07,7.77 46.61,9.71 1.94,0 3.88,0 3.88,-1.94 z m -145.67,-36.9 1.94,3.88 c 9.71,3.89 21.37,9.71 34.96,13.6 l 13.6,3.88 c 5.83,3.89 13.6,5.83 15.54,0 1.94,-17.48 -13.6,-42.73 -34.96,-52.44 -7.77,-1.94 -15.54,-3.89 -25.25,-5.83 -1.94,1.94 -9.71,-1.94 -9.71,3.89 0,9.71 3.88,23.3 3.88,33.02 z M 1072.23,807.266 c -5.82,-1.942 -40.78,11.656 -36.9,7.773 -7.77,9.707 5.83,13.594 -25.25,25.246 l -7.77,-1.941 c -1.94,0 -3.884,-1.946 -7.771,1.941 0,5.828 7.771,3.883 7.771,9.711 11.65,25.254 5.83,46.617 5.83,71.867 l 5.82,21.364 c 17.49,19.425 17.49,21.367 27.2,33.019 11.65,15.539 13.59,15.539 27.19,27.194 3.88,3.88 7.77,3.88 9.71,1.94 7.77,-5.825 7.77,-9.712 9.71,-15.536 3.89,-25.25 -11.65,-42.731 -29.13,-56.328 -13.6,-11.653 -25.25,-27.192 -23.31,-44.672 v -1.942 c 7.77,5.825 13.6,7.77 17.48,13.594 7.77,23.309 34.96,33.02 50.5,52.445 7.77,11.653 1.94,31.075 0,44.672 0,-1.945 19.42,9.707 15.54,5.827 7.77,-3.885 7.77,-11.655 11.65,-19.424 7.77,-21.364 7.77,-42.731 -5.82,-62.153 l -36.91,-44.672 c 0,-25.253 5.83,-54.386 -15.54,-69.925 z m 48.56,225.304 c -9.71,-3.88 -17.48,-5.82 -29.13,0 -1.95,1.95 -9.71,5.83 -7.77,9.72 7.77,13.59 19.42,21.36 27.19,33.01 l 3.88,1.95 c 15.54,19.42 38.85,34.96 62.16,48.55 l 13.59,3.89 c 1.95,3.88 9.72,11.65 11.66,3.88 0,-23.3 -9.71,-48.55 -33.02,-66.03 -13.6,-9.72 -17.48,-7.77 -31.08,-9.72 l -5.82,-9.71 c -1.95,-5.82 -5.83,-11.65 -11.66,-15.54 z M 994.539,896.613 v -15.539 c -1.941,-15.539 -7.766,-34.961 -23.305,-42.73 -7.769,1.941 -5.828,13.594 -7.769,19.422 5.828,15.539 17.48,27.195 25.246,42.73 1.945,0 3.887,0 3.887,0 z M 790.598,313.922 c -5.828,-7.774 -9.711,-3.887 -15.535,-3.887 -17.485,3.887 -27.192,11.653 -33.02,31.074 -5.828,27.196 -5.828,58.27 0,85.461 l 1.941,1.942 c 13.594,1.945 31.079,3.886 36.903,0 3.883,-1.942 -5.824,-50.496 -5.824,-50.496 0,-9.711 5.824,-34.965 9.707,-48.559 0,0 9.71,-11.652 5.828,-15.535 z m 124.308,31.074 c 0,-19.422 -23.304,-34.961 -33.019,-36.902 -11.653,-3.887 -44.672,-1.946 -52.442,0 -9.711,3.883 -33.019,48.554 -31.078,71.863 0,19.422 5.828,48.555 13.598,52.441 7.769,1.942 27.191,0 27.191,0 9.711,0 15.539,-1.941 23.309,-3.886 5.824,0 0,-7.766 3.883,-11.653 1.941,-9.711 1.941,-19.421 7.769,-29.132 9.715,-17.481 25.254,-27.196 40.789,-33.024 1.942,-1.941 0,-7.769 0,-9.707 z m -23.304,73.805 c 0,1.945 0,3.887 1.941,5.828 h 15.535 c 13.598,0 29.137,-5.828 40.793,7.769 7.766,0 7.766,-7.769 9.711,-15.539 1.941,-7.769 1.941,-13.597 1.941,-23.304 -3.886,-5.828 -5.828,-15.539 -13.597,-19.426 -9.711,-3.883 -21.367,-3.883 -31.078,0 -15.539,9.715 -25.246,23.309 -25.246,44.672 z m 297.168,67.98 c -19.42,-67.98 -29.13,-100.996 1.94,-170.922 0,-1.937 3.89,-11.652 0,-13.593 -33.01,7.769 -42.73,11.656 -73.8,13.593 -29.14,3.887 -77.7,-3.882 -108.77,-3.882 -27.195,0 -52.445,-1.942 -77.695,-3.883 -7.769,3.883 -3.886,13.594 -1.945,17.48 1.945,9.707 3.887,13.594 3.887,25.246 3.886,3.883 9.711,1.942 13.597,3.883 17.481,1.945 33.02,17.485 34.961,33.024 5.828,17.48 0,36.902 -7.769,52.441 0,3.887 -7.77,7.77 -3.883,11.656 19.418,38.844 5.828,79.633 -1.941,118.481 -5.829,27.191 -17.481,56.328 -21.368,85.461 0,3.886 -3.886,9.714 1.942,11.652 l 1.945,-1.938 c 23.305,-27.195 87.399,-83.523 110.709,-102.945 23.31,-19.426 85.46,-56.328 126.25,-64.097 3.88,-3.883 3.88,-7.77 1.94,-11.657"
         style="fill:#2f8375;fill-opacity:1;fill-rule:evenodd;stroke:none"
         id="path20"
         inkscape:connector-curvature="0" /><path
         d="m 1493.71,838.344 c -23.3,-19.422 -54.38,-19.422 -77.69,-36.903 -11.65,-11.656 -9.71,-23.308 -3.88,-38.847 9.71,-17.481 3.88,-15.539 -7.77,-21.367 -29.14,-9.711 -29.14,-40.789 -66.04,-36.907 -1.94,0 -9.71,3.887 -5.83,-1.937 3.89,-5.828 5.83,-1.945 13.6,-1.945 13.6,-1.942 17.48,3.882 27.19,9.71 13.6,11.657 11.66,15.54 27.2,23.313 3.88,0 13.59,1.937 19.42,1.937 1.94,-3.882 1.94,-3.882 1.94,-7.765 0,-7.774 -13.6,-15.543 -19.42,-17.485 7.77,-5.828 19.42,-13.593 17.48,-21.363 -1.95,-3.887 -1.95,-5.824 -7.77,-7.769 -5.83,-3.883 -21.37,-3.883 -34.96,7.769 -1.95,-1.941 -3.89,3.883 -9.72,-1.941 13.6,-13.598 31.08,-9.711 33.03,-13.598 3.88,-1.941 -9.72,-19.422 -9.72,-21.367 -7.77,-25.246 1.95,-46.613 -1.94,-69.922 -1.94,-19.422 -7.77,-29.133 -25.25,-40.789 -31.08,-21.363 -52.44,-27.191 -87.4,-33.02 -89.35,-5.824 -147.62,25.254 -211.72,73.809 -66.034,48.559 -91.284,73.809 -110.706,101.004 0,11.652 7.769,19.422 0,33.016 -5.828,-3.887 -3.883,-11.657 -7.77,-15.539 -5.828,-7.77 -17.484,-11.653 -27.191,-11.653 -25.25,9.711 -27.191,40.789 -42.73,58.27 -36.907,34.961 -46.618,87.406 -29.137,130.136 7.769,13.598 19.422,25.25 34.961,31.075 15.539,1.941 34.961,1.941 44.672,-15.539 13.597,-11.653 21.367,-31.079 25.254,-48.559 5.824,-9.707 -1.942,-17.477 7.769,-25.246 15.539,-1.945 29.129,-5.828 42.728,3.883 11.65,-1.942 11.65,-13.594 21.37,-19.422 l 13.59,-7.77 c 15.54,-7.773 36.91,-7.773 50.5,3.883 25.25,25.25 19.43,52.442 27.19,79.637 23.31,21.363 38.85,50.5 38.85,79.637 -1.94,19.421 -7.77,36.898 -17.48,56.32 1.94,9.71 7.77,17.48 9.71,27.2 3.89,0 7.77,0 9.71,1.94 27.2,5.82 50.5,29.13 62.16,54.38 l 1.94,1.94 c 29.13,1.95 67.98,13.6 83.52,44.68 3.88,13.59 19.42,3.88 29.13,5.82 15.54,1.95 33.02,9.72 42.73,19.43 5.83,1.94 7.77,-1.94 9.72,-3.88 5.82,-23.31 19.42,-44.68 27.19,-69.93 9.71,-17.48 11.65,-34.96 9.71,-52.44 1.94,-27.19 19.42,-54.386 31.08,-83.523 9.71,-29.133 29.13,-60.211 40.78,-89.344 1.95,-11.656 7.77,-21.367 0,-33.019 z m 5.83,52.445 c -21.36,48.555 -44.67,89.34 -62.15,139.841 -13.6,17.48 -5.83,36.91 -7.77,56.33 -7.77,27.19 -19.42,50.5 -31.08,79.64 -3.88,7.76 5.83,9.7 7.77,17.47 5.83,13.6 1.94,29.14 -3.88,44.68 -3.89,7.77 5.82,11.65 3.88,19.42 0,13.6 -9.71,23.31 -19.42,29.13 -13.6,19.43 -19.43,29.14 -34.96,46.62 v 3.89 c 7.77,5.82 13.59,19.42 13.59,31.07 -1.94,11.66 -5.82,23.31 -17.48,31.08 -19.42,11.65 -36.9,-5.83 -52.44,-13.6 -5.83,-3.88 -7.77,-5.82 -13.6,-5.82 -1.94,1.94 -7.77,1.94 -11.65,3.88 -3.89,-3.88 -7.77,-7.77 -13.59,-13.6 l 17.47,-5.82 c 1.95,-1.95 1.95,-1.95 1.95,-3.89 v 0 c -1.95,-1.94 -42.73,-36.9 -42.73,-36.9 l -73.81,-73.81 -21.37,-21.36 -66.04,-75.75 c -34.96,-38.85 -85.457,-104.89 -116.535,-153.446 -15.539,-21.367 -31.078,-44.672 -46.617,-67.981 0,-1.945 -3.883,-1.945 -7.769,-1.945 -3.883,0 -7.766,0 -9.707,0 v 0 0 0 c -17.485,-3.883 -29.137,-7.77 -40.793,-19.422 -19.418,-19.422 -27.188,-44.672 -27.188,-69.922 0,-19.422 3.883,-36.906 13.594,-56.328 -3.887,-9.711 -13.594,-19.422 -19.422,-27.191 l -3.887,-3.887 -5.824,-3.883 c -1.945,-3.887 -5.828,-7.769 -9.715,-11.652 v 0 c 0,-1.945 0,-3.887 1.942,-5.828 h 1.945 1.941 c 15.539,3.883 25.25,15.539 33.02,27.191 l 7.765,7.77 c 1.946,0 1.946,0 5.829,-1.942 0,0 1.941,-1.941 1.941,-3.883 v 0 c 0,0 0,-3.886 0,-5.828 -36.898,-36.906 -67.98,-56.328 -104.879,-79.633 l -7.773,-3.886 h 7.773 c 15.535,-1.942 29.129,5.824 42.727,15.539 l 17.484,7.765 c 15.539,7.77 31.074,19.422 44.668,33.02 l 13.598,9.715 c 1.941,0 3.886,0 3.886,-1.945 0,0 0,0 1.942,-1.942 l 11.656,-23.308 c -1.945,-11.653 -1.945,-23.305 -1.945,-33.02 0,-23.309 3.886,-46.613 9.715,-69.922 3.882,-23.308 9.707,-46.617 9.707,-69.922 0,0 0,-1.941 0,-3.886 0,-7.77 -7.766,-17.481 -15.536,-19.422 -13.597,-1.942 -31.078,-1.942 -50.5,-1.942 -23.308,0 -46.617,-1.945 -66.043,-5.828 -5.824,-1.941 -11.652,-3.887 -19.417,-5.828 -5.829,-1.941 -13.598,-3.887 -17.485,-3.887 h -1.941 -1.942 L 726.5,484.84 c -1.941,-1.942 -3.883,-3.883 -3.883,-5.828 -1.941,0 -1.941,0 -1.941,0 0,-3.883 1.941,-5.824 3.883,-5.824 1.941,-1.942 1.941,-1.942 3.886,-1.942 5.828,0 11.653,1.942 19.426,3.883 1.942,1.945 7.77,3.883 11.652,3.883 38.844,7.769 79.633,5.828 108.766,1.945 13.598,1.941 36.906,1.941 44.676,21.367 3.883,7.766 3.883,15.539 3.883,23.309 0,7.769 0,15.535 -1.942,23.305 l -3.883,19.421 c 0,11.657 -1.945,23.309 -5.828,34.965 -3.886,21.364 -7.769,42.731 -7.769,64.094 0,3.887 0,5.828 0,11.652 h 1.945 c 1.938,1.946 1.938,0 3.883,-1.937 3.883,-1.945 5.824,-3.887 7.769,-3.887 1.942,-1.941 5.825,-1.941 7.77,-1.941 3.883,0 5.824,-1.942 5.824,-3.887 1.942,-19.422 7.77,-38.848 15.539,-56.328 3.887,-13.594 7.77,-27.192 9.715,-40.785 5.824,-21.367 11.652,-44.672 11.652,-66.039 0,-13.598 -1.941,-27.192 -5.828,-40.789 -9.711,-17.481 -33.019,-17.481 -52.441,-19.422 h -7.77 l -50.504,3.883 c -44.671,3.886 -87.402,7.769 -134.015,0 l -11.652,-1.942 c -5.829,0 -11.657,-1.941 -17.485,0 -1.937,1.942 -1.937,3.887 -1.937,7.77 0,1.941 0,1.941 0,3.886 7.765,17.477 11.652,33.016 11.652,48.555 0,11.656 -1.945,23.309 -7.77,31.078 -11.656,23.305 -25.25,38.844 -40.789,50.5 -19.421,19.422 -36.902,36.903 -52.445,56.324 -7.769,0 -13.598,1.946 -15.539,1.946 v 0 l -9.711,-9.715 c 11.652,-11.652 21.367,-21.363 34.961,-34.957 19.426,-9.715 34.965,-29.141 48.559,-42.731 17.484,-19.425 21.367,-40.789 17.484,-64.097 -1.945,-27.196 -27.195,-38.848 -44.676,-58.274 -5.824,-13.593 -11.652,-29.133 0,-42.726 3.883,-15.539 31.074,-13.598 34.961,-25.25 7.77,-31.078 58.27,-48.559 69.922,-48.559 9.715,-1.941 19.426,-11.652 19.426,-11.652 21.367,-15.543 46.613,-11.656 62.156,-9.715 13.594,1.945 38.844,-9.711 54.383,-7.77 25.25,9.715 44.672,5.829 69.922,7.77 77.693,0 165.093,0 244.733,-9.711 15.54,1.941 33.02,-7.77 46.61,-1.941 1.95,5.824 0,11.652 0,15.539 -38.84,60.211 -44.67,126.246 -23.3,192.289 h 15.53 c 50.5,-5.828 97.12,0 149.56,31.078 27.2,13.594 40.79,48.555 38.85,71.863 0,15.539 -5.83,34.961 -3.88,50.5 1.94,7.77 5.82,19.422 13.59,23.309 1.94,1.941 11.65,7.765 15.54,15.539 5.83,15.539 -5.83,21.363 -9.71,23.304 9.71,1.942 17.48,21.368 9.71,33.02 -5.83,5.828 -11.66,27.195 -11.66,33.02 -1.94,9.71 -1.94,19.425 5.83,27.195 21.37,9.711 40.79,11.656 62.16,21.363 15.53,5.828 23.3,21.367 23.3,34.961 z M 656.578,405.207 c -1.941,-3.883 -1.941,-7.769 -1.941,-13.598 -1.946,-3.882 -9.715,0 -11.653,1.946 -9.714,5.824 -9.714,1.941 -11.656,11.652 0,5.824 0,11.652 7.77,15.539 7.769,3.883 17.48,7.766 23.308,0 0,-3.887 -5.828,-9.715 -5.828,-15.539 z m 52.442,-64.098 c -13.594,0 -21.364,5.825 -27.192,21.368 -5.828,17.48 -7.765,33.019 -3.883,52.441 1.946,1.941 3.883,3.883 5.828,1.941 l 17.477,7.77 c 3.887,1.941 9.715,1.941 15.539,0 l 1.945,-3.883 c 0,-9.715 -1.945,-15.539 -1.945,-25.25 0,-23.308 -3.887,-29.137 3.887,-50.5 -1.942,-5.828 -7.774,-3.887 -11.656,-3.887 z m 691.47,846.851 c -1.95,-1.94 -3.89,-3.89 -7.77,-3.89 -5.83,5.83 -3.89,9.72 -1.95,15.54 0,1.94 0,1.94 1.95,1.94 3.88,0 5.82,-1.94 5.82,-1.94 1.95,-3.88 1.95,-7.77 1.95,-11.65 z M 922.676,912.148 c 40.789,73.809 91.284,137.902 143.734,205.892 l 75.75,83.51 c 52.44,58.28 112.65,116.54 178.69,161.22 7.77,3.88 11.65,15.54 19.42,7.77 l 7.77,-7.77 c 5.83,-5.83 1.94,-21.37 -3.88,-27.19 -3.89,-1.95 -7.77,-5.83 -11.66,-9.72 11.66,-13.59 31.08,-36.9 46.62,-52.44 5.83,-5.83 3.88,-13.59 15.54,-19.42 5.83,-1.95 7.77,-9.71 3.88,-15.54 -9.71,-13.6 -27.19,-9.71 -42.73,-13.6 -50.5,-11.65 -93.23,-27.19 -149.56,-54.38 -44.67,-25.25 -81.57,-50.5 -114.59,-93.23 -13.6,-15.54 -27.2,-27.2 -38.85,-44.68 -29.13,-38.843 -52.44,-75.746 -75.751,-116.535 -9.707,-11.656 -11.653,-17.48 -23.305,-29.133 -5.828,-5.828 -11.656,5.825 -15.539,9.711 0,1.942 0,1.942 0,1.942 -1.942,0 -3.887,0 -5.828,0 -1.942,5.824 -11.657,7.769 -9.711,13.593 z m 452.554,285.522 c 0,-13.6 -19.42,-25.25 -34.96,-29.13 -5.82,-1.94 -13.59,-1.94 -19.42,-1.94 -1.94,1.94 -1.94,1.94 -1.94,3.88 0,7.77 1.94,11.65 1.94,17.48 l 3.89,1.94 c 15.53,3.89 31.07,7.77 46.61,9.71 1.94,0 3.88,0 3.88,-1.94 z m -145.67,-36.9 1.94,3.88 c 9.71,3.89 21.37,9.71 34.96,13.6 l 13.6,3.88 c 5.83,3.89 13.6,5.83 15.54,0 1.94,-17.48 -13.6,-42.73 -34.96,-52.44 -7.77,-1.94 -15.54,-3.89 -25.25,-5.83 -1.94,1.94 -9.71,-1.94 -9.71,3.89 0,9.71 3.88,23.3 3.88,33.02 z M 1072.23,807.266 c -5.82,-1.942 -40.78,11.656 -36.9,7.773 -7.77,9.707 5.83,13.594 -25.25,25.246 l -7.77,-1.941 c -1.94,0 -3.884,-1.946 -7.771,1.941 0,5.828 7.771,3.883 7.771,9.711 11.65,25.254 5.83,46.617 5.83,71.867 l 5.82,21.364 c 17.49,19.425 17.49,21.367 27.2,33.019 11.65,15.539 13.59,15.539 27.19,27.194 3.88,3.88 7.77,3.88 9.71,1.94 7.77,-5.825 7.77,-9.712 9.71,-15.536 3.89,-25.25 -11.65,-42.731 -29.13,-56.328 -13.6,-11.653 -25.25,-27.192 -23.31,-44.672 v -1.942 c 7.77,5.825 13.6,7.77 17.48,13.594 7.77,23.309 34.96,33.02 50.5,52.445 7.77,11.653 1.94,31.075 0,44.672 0,-1.945 19.42,9.707 15.54,5.827 7.77,-3.885 7.77,-11.655 11.65,-19.424 7.77,-21.364 7.77,-42.731 -5.82,-62.153 l -36.91,-44.672 c 0,-25.253 5.83,-54.386 -15.54,-69.925 z m 48.56,225.304 c -9.71,-3.88 -17.48,-5.82 -29.13,0 -1.95,1.95 -9.71,5.83 -7.77,9.72 7.77,13.59 19.42,21.36 27.19,33.01 l 3.88,1.95 c 15.54,19.42 38.85,34.96 62.16,48.55 l 13.59,3.89 c 1.95,3.88 9.72,11.65 11.66,3.88 0,-23.3 -9.71,-48.55 -33.02,-66.03 -13.6,-9.72 -17.48,-7.77 -31.08,-9.72 l -5.82,-9.71 c -1.95,-5.82 -5.83,-11.65 -11.66,-15.54 z M 994.539,896.613 v -15.539 c -1.941,-15.539 -7.766,-34.961 -23.305,-42.73 -7.769,1.941 -5.828,13.594 -7.769,19.422 5.828,15.539 17.48,27.195 25.246,42.73 1.945,0 3.887,0 3.887,0 z M 790.598,313.922 c -5.828,-7.774 -9.711,-3.887 -15.535,-3.887 -17.485,3.887 -27.192,11.653 -33.02,31.074 -5.828,27.196 -5.828,58.27 0,85.461 l 1.941,1.942 c 13.594,1.945 31.079,3.886 36.903,0 3.883,-1.942 -5.824,-50.496 -5.824,-50.496 0,-9.711 5.824,-34.965 9.707,-48.559 0,0 9.71,-11.652 5.828,-15.535 z m 124.308,31.074 c 0,-19.422 -23.304,-34.961 -33.019,-36.902 -11.653,-3.887 -44.672,-1.946 -52.442,0 -9.711,3.883 -33.019,48.554 -31.078,71.863 0,19.422 5.828,48.555 13.598,52.441 7.769,1.942 27.191,0 27.191,0 9.711,0 15.539,-1.941 23.309,-3.886 5.824,0 0,-7.766 3.883,-11.653 1.941,-9.711 1.941,-19.421 7.769,-29.132 9.715,-17.481 25.254,-27.196 40.789,-33.024 1.942,-1.941 0,-7.769 0,-9.707 z m -23.304,73.805 c 0,1.945 0,3.887 1.941,5.828 h 15.535 c 13.598,0 29.137,-5.828 40.793,7.769 7.766,0 7.766,-7.769 9.711,-15.539 1.941,-7.769 1.941,-13.597 1.941,-23.304 -3.886,-5.828 -5.828,-15.539 -13.597,-19.426 -9.711,-3.883 -21.367,-3.883 -31.078,0 -15.539,9.715 -25.246,23.309 -25.246,44.672 z m 297.168,67.98 c -19.42,-67.98 -29.13,-100.996 1.94,-170.922 0,-1.937 3.89,-11.652 0,-13.593 -33.01,7.769 -42.73,11.656 -73.8,13.593 -29.14,3.887 -77.7,-3.882 -108.77,-3.882 -27.195,0 -52.445,-1.942 -77.695,-3.883 -7.769,3.883 -3.886,13.594 -1.945,17.48 1.945,9.707 3.887,13.594 3.887,25.246 3.886,3.883 9.711,1.942 13.597,3.883 17.481,1.945 33.02,17.485 34.961,33.024 5.828,17.48 0,36.902 -7.769,52.441 0,3.887 -7.77,7.77 -3.883,11.656 19.418,38.844 5.828,79.633 -1.941,118.481 -5.829,27.191 -17.481,56.328 -21.368,85.461 0,3.886 -3.886,9.714 1.942,11.652 l 1.945,-1.938 c 23.305,-27.195 87.399,-83.523 110.709,-102.945 23.31,-19.426 85.46,-56.328 126.25,-64.097 3.88,-3.883 3.88,-7.77 1.94,-11.657 z"
         style="fill:none;stroke:#2f8375;stroke-width:10.78979969;stroke-linecap:round;stroke-linejoin:round;stroke-miterlimit:2.61310005;stroke-dasharray:none;stroke-opacity:1"
         id="path22"
         inkscape:connector-curvature="0" /><path
         d="m 1359.7,1073.36 c 3.88,-5.82 5.82,-9.71 3.88,-15.54 -7.77,0 -9.71,9.72 -15.54,13.6 -11.65,3.88 -21.36,0 -31.08,-3.88 -27.19,-11.66 -50.5,-33.02 -75.75,-44.68 -1.94,0 -5.82,0 -7.76,1.94 3.88,3.89 11.65,5.83 17.48,7.77 27.19,17.48 52.44,46.62 85.46,50.5 9.71,0 17.48,-1.94 23.31,-9.71"
         style="fill:#2f8375;fill-opacity:1;fill-rule:evenodd;stroke:none"
         id="path24"
         inkscape:connector-curvature="0" /><path
         d="m 1359.7,1073.36 c 3.88,-5.82 5.82,-9.71 3.88,-15.54 -7.77,0 -9.71,9.72 -15.54,13.6 -11.65,3.88 -21.36,0 -31.08,-3.88 -27.19,-11.66 -50.5,-33.02 -75.75,-44.68 -1.94,0 -5.82,0 -7.76,1.94 3.88,3.89 11.65,5.83 17.48,7.77 27.19,17.48 52.44,46.62 85.46,50.5 9.71,0 17.48,-1.94 23.31,-9.71 z"
         style="fill:none;stroke:#2f8375;stroke-width:10.78979969;stroke-linecap:round;stroke-linejoin:round;stroke-miterlimit:2.61310005;stroke-dasharray:none;stroke-opacity:1"
         id="path26"
         inkscape:connector-curvature="0" /><path
         d="m 1357.75,1028.69 c -1.94,5.83 -1.94,17.48 -9.71,19.42 -1.94,-5.82 0,-9.71 -1.94,-13.59 -1.94,-1.95 -5.83,-5.83 -11.65,-3.89 -33.02,-3.88 -56.33,-31.075 -83.52,-46.614 -9.72,-5.825 -19.43,-7.77 -29.14,-11.653 -1.94,0 -1.94,-1.941 0,-3.886 31.08,-3.883 60.21,-5.825 91.29,-9.707 l 33.02,3.882 c 1.94,5.825 -3.89,7.77 -3.89,13.594 5.83,13.598 5.83,29.134 1.95,42.734 3.88,5.82 13.59,0 13.59,9.71 z m -23.3,-52.444 c -5.83,-5.824 -11.66,0 -17.49,-1.941 -13.59,1.941 -34.96,-1.942 -50.5,0 -1.94,1.941 -3.88,3.886 -1.94,5.824 1.94,3.887 7.77,3.887 11.66,7.769 17.48,9.715 33.02,19.422 50.5,23.312 3.88,0 7.77,-1.94 7.77,-3.89 1.94,-9.707 0,-23.304 0,-31.074"
         style="fill:#2f8375;fill-opacity:1;fill-rule:evenodd;stroke:none"
         id="path28"
         inkscape:connector-curvature="0" /><path
         d="m 1357.75,1028.69 c -1.94,5.83 -1.94,17.48 -9.71,19.42 -1.94,-5.82 0,-9.71 -1.94,-13.59 -1.94,-1.95 -5.83,-5.83 -11.65,-3.89 -33.02,-3.88 -56.33,-31.075 -83.52,-46.614 -9.72,-5.825 -19.43,-7.77 -29.14,-11.653 -1.94,0 -1.94,-1.941 0,-3.886 31.08,-3.883 60.21,-5.825 91.29,-9.707 l 33.02,3.882 c 1.94,5.825 -3.89,7.77 -3.89,13.594 5.83,13.598 5.83,29.134 1.95,42.734 3.88,5.82 13.59,0 13.59,9.71 z m -23.3,-52.444 c -5.83,-5.824 -11.66,0 -17.49,-1.941 -13.59,1.941 -34.96,-1.942 -50.5,0 -1.94,1.941 -3.88,3.886 -1.94,5.824 1.94,3.887 7.77,3.887 11.66,7.769 17.48,9.715 33.02,19.422 50.5,23.312 3.88,0 7.77,-1.94 7.77,-3.89 1.94,-9.707 0,-23.304 0,-31.074 z"
         style="fill:none;stroke:#2f8375;stroke-width:10.78979969;stroke-linecap:round;stroke-linejoin:round;stroke-miterlimit:2.61310005;stroke-dasharray:none;stroke-opacity:1"
         id="path30"
         inkscape:connector-curvature="0" /><path
         d="m 1375.23,877.191 c 0,0 1.95,3.883 3.89,3.883 1.94,-1.941 1.94,-3.883 1.94,-5.824 0,-5.828 -1.94,-11.656 -1.94,-17.484 -3.89,-7.77 -3.89,-15.539 -3.89,-23.305 0,-3.887 0,-5.828 0,-7.77 5.83,-5.828 11.66,-7.769 19.43,-5.828 l 13.59,7.77 c 11.66,7.765 21.37,13.594 42.73,19.418 v 0 -1.938 c 0,-1.945 0,-3.886 0,-5.828 0,-1.941 -19.42,-9.711 -19.42,-9.711 -15.54,-5.828 -31.07,-11.652 -44.67,-19.422 -3.89,-1.941 -7.77,0 -11.66,1.942 h -1.94 c -5.83,7.769 -5.83,15.539 -5.83,23.304 0,5.829 0,13.598 1.95,19.426 1.94,5.824 3.88,11.653 3.88,19.426 l 1.94,1.941"
         style="fill:#2f8375;fill-opacity:1;fill-rule:evenodd;stroke:none"
         id="path32"
         inkscape:connector-curvature="0" /><path
         d="m 1375.23,877.191 c 0,0 1.95,3.883 3.89,3.883 1.94,-1.941 1.94,-3.883 1.94,-5.824 0,-5.828 -1.94,-11.656 -1.94,-17.484 -3.89,-7.77 -3.89,-15.539 -3.89,-23.305 0,-3.887 0,-5.828 0,-7.77 5.83,-5.828 11.66,-7.769 19.43,-5.828 l 13.59,7.77 c 11.66,7.765 21.37,13.594 42.73,19.418 v 0 -1.938 c 0,-1.945 0,-3.886 0,-5.828 0,-1.941 -19.42,-9.711 -19.42,-9.711 -15.54,-5.828 -31.07,-11.652 -44.67,-19.422 -3.89,-1.941 -7.77,0 -11.66,1.942 h -1.94 c -5.83,7.769 -5.83,15.539 -5.83,23.304 0,5.829 0,13.598 1.95,19.426 1.94,5.824 3.88,11.653 3.88,19.426 z"
         style="fill:none;stroke:#2f8375;stroke-width:10.78979969;stroke-linecap:round;stroke-linejoin:round;stroke-miterlimit:2.61310005;stroke-dasharray:none;stroke-opacity:1"
         id="path34"
         inkscape:connector-curvature="0" /><path
         d="m 914.906,883.02 c 11.653,-21.372 0,-42.735 0,-66.043 1.942,-5.825 15.539,-5.825 11.653,-13.594 -3.883,-3.887 -7.766,-3.887 -9.711,0 -7.77,1.941 -9.711,5.828 -9.711,11.656 -1.942,21.359 13.593,44.668 0,62.152 -3.883,5.829 -11.653,7.77 -15.535,9.711 -13.598,-1.941 -19.426,-17.48 -23.313,-27.195 -7.769,-25.246 -9.711,-54.383 13.598,-73.809 13.597,-7.765 29.136,-17.48 31.078,-34.957 1.941,-1.945 5.828,-5.828 9.711,-3.886 3.883,0 3.883,11.656 9.711,7.769 l 1.941,-5.828 c -1.941,-3.883 -1.941,-13.598 -9.711,-13.598 -3.887,0 -7.769,1.946 -11.652,3.887 -9.711,9.711 -1.942,23.309 -15.539,27.192 -23.309,7.769 -38.848,31.078 -40.789,54.386 -1.942,21.364 0,46.614 19.426,64.098 7.769,5.828 15.539,9.711 25.246,5.828 5.828,0 11.656,-3.887 13.597,-7.769"
         style="fill:#2f8375;fill-opacity:1;fill-rule:evenodd;stroke:none"
         id="path36"
         inkscape:connector-curvature="0" /><path
         d="m 914.906,883.02 c 11.653,-21.372 0,-42.735 0,-66.043 1.942,-5.825 15.539,-5.825 11.653,-13.594 -3.883,-3.887 -7.766,-3.887 -9.711,0 -7.77,1.941 -9.711,5.828 -9.711,11.656 -1.942,21.359 13.593,44.668 0,62.152 -3.883,5.829 -11.653,7.77 -15.535,9.711 -13.598,-1.941 -19.426,-17.48 -23.313,-27.195 -7.769,-25.246 -9.711,-54.383 13.598,-73.809 13.597,-7.765 29.136,-17.48 31.078,-34.957 1.941,-1.945 5.828,-5.828 9.711,-3.886 3.883,0 3.883,11.656 9.711,7.769 l 1.941,-5.828 c -1.941,-3.883 -1.941,-13.598 -9.711,-13.598 -3.887,0 -7.769,1.946 -11.652,3.887 -9.711,9.711 -1.942,23.309 -15.539,27.192 -23.309,7.769 -38.848,31.078 -40.789,54.386 -1.942,21.364 0,46.614 19.426,64.098 7.769,5.828 15.539,9.711 25.246,5.828 5.828,0 11.656,-3.887 13.597,-7.769 z"
         style="fill:none;stroke:#2f8375;stroke-width:10.78979969;stroke-linecap:round;stroke-linejoin:round;stroke-miterlimit:2.61310005;stroke-dasharray:none;stroke-opacity:1"
         id="path38"
         inkscape:connector-curvature="0" /><path
         d="m 627.445,723.746 c -42.73,-19.426 -54.386,-69.922 -56.328,-71.867 v -3.883 L 575,646.055 c 1.941,0 40.793,-13.598 89.348,9.711 46.617,23.304 56.328,71.867 56.328,71.867 l 1.941,5.828 -3.883,1.937 c -1.945,0 -50.5,7.77 -91.289,-11.652 z m 3.883,-9.711 c 31.078,13.598 66.039,13.598 79.637,11.653 -3.887,-13.598 -17.481,-44.672 -52.442,-60.208 -34.96,-17.484 -64.097,-13.601 -75.753,-11.656 3.886,13.594 17.48,46.614 48.558,60.211"
         style="fill:#2f8375;fill-opacity:1;fill-rule:evenodd;stroke:none"
         id="path40"
         inkscape:connector-curvature="0" /><path
         d="m 627.445,723.746 c -42.73,-19.426 -54.386,-69.922 -56.328,-71.867 v -3.883 L 575,646.055 c 1.941,0 40.793,-13.598 89.348,9.711 46.617,23.304 56.328,71.867 56.328,71.867 l 1.941,5.828 -3.883,1.937 c -1.945,0 -50.5,7.77 -91.289,-11.652 z m 3.883,-9.711 c 31.078,13.598 66.039,13.598 79.637,11.653 -3.887,-13.598 -17.481,-44.672 -52.442,-60.208 -34.96,-17.484 -64.097,-13.601 -75.753,-11.656 3.886,13.594 17.48,46.614 48.558,60.211 z"
         style="fill:none;stroke:#2f8375;stroke-width:10.78979969;stroke-linecap:round;stroke-linejoin:round;stroke-miterlimit:2.61310005;stroke-dasharray:none;stroke-opacity:1"
         id="path42"
         inkscape:connector-curvature="0" /><path
         d="m 670.176,816.977 c -42.731,-19.422 -58.27,-67.981 -58.27,-69.922 l -1.941,-5.828 h 5.828 c 0,0 38.844,-13.594 87.402,9.714 48.559,23.305 58.27,69.922 58.27,71.864 v 3.886 l -3.887,1.942 c -1.937,0 -46.613,7.765 -87.402,-11.656 z m 3.887,-9.711 c 29.132,15.539 62.152,13.597 75.75,11.656 -3.887,-11.656 -15.54,-40.789 -52.446,-58.274 -33.019,-17.48 -64.097,-13.593 -73.804,-11.652 3.882,13.598 19.421,46.617 50.5,58.27"
         style="fill:#2f8375;fill-opacity:1;fill-rule:evenodd;stroke:none"
         id="path44"
         inkscape:connector-curvature="0" /><path
         d="m 670.176,816.977 c -42.731,-19.422 -58.27,-67.981 -58.27,-69.922 l -1.941,-5.828 h 5.828 c 0,0 38.844,-13.594 87.402,9.714 48.559,23.305 58.27,69.922 58.27,71.864 v 3.886 l -3.887,1.942 c -1.937,0 -46.613,7.765 -87.402,-11.656 z m 3.887,-9.711 c 29.132,15.539 62.152,13.597 75.75,11.656 -3.887,-11.656 -15.54,-40.789 -52.446,-58.274 -33.019,-17.48 -64.097,-13.593 -73.804,-11.652 3.882,13.598 19.421,46.617 50.5,58.27 z"
         style="fill:none;stroke:#2f8375;stroke-width:10.78979969;stroke-linecap:round;stroke-linejoin:round;stroke-miterlimit:2.61310005;stroke-dasharray:none;stroke-opacity:1"
         id="path46"
         inkscape:connector-curvature="0" /><path
         d="m 724.559,908.266 c -42.731,-17.477 -60.211,-67.981 -62.153,-69.922 v -3.883 l 3.887,-1.945 c 1.941,-1.942 40.785,-11.653 89.348,11.652 46.613,21.367 58.265,66.039 58.265,67.98 v 3.887 l -3.883,1.942 c -1.941,1.941 -44.675,7.769 -85.464,-9.711 z m 3.886,-9.711 c 29.133,13.593 62.153,11.652 73.809,9.711 -3.887,-9.711 -17.484,-38.844 -52.441,-56.328 -33.024,-15.54 -64.098,-13.594 -75.75,-11.653 5.828,13.594 23.304,44.676 54.382,58.27"
         style="fill:#2f8375;fill-opacity:1;fill-rule:evenodd;stroke:none"
         id="path48"
         inkscape:connector-curvature="0" /><path
         d="m 724.559,908.266 c -42.731,-17.477 -60.211,-67.981 -62.153,-69.922 v -3.883 l 3.887,-1.945 c 1.941,-1.942 40.785,-11.653 89.348,11.652 46.613,21.367 58.265,66.039 58.265,67.98 v 3.887 l -3.883,1.942 c -1.941,1.941 -44.675,7.769 -85.464,-9.711 z m 3.886,-9.711 c 29.133,13.593 62.153,11.652 73.809,9.711 -3.887,-9.711 -17.484,-38.844 -52.441,-56.328 -33.024,-15.54 -64.098,-13.594 -75.75,-11.653 5.828,13.594 23.304,44.676 54.382,58.27 z"
         style="fill:none;stroke:#2f8375;stroke-width:10.78979969;stroke-linecap:round;stroke-linejoin:round;stroke-miterlimit:2.61310005;stroke-dasharray:none;stroke-opacity:1"
         id="path50"
         inkscape:connector-curvature="0" /><path
         d="m 777,997.613 c -40.785,-17.484 -62.152,-66.039 -62.152,-67.98 l -1.946,-5.828 5.832,-1.942 c 0,0 38.844,-9.715 87.403,11.653 48.558,23.308 60.211,66.039 60.211,67.984 v 3.88 l -3.883,1.94 c -1.945,0 -42.731,7.77 -85.465,-9.707 z m 5.828,-9.715 c 29.137,13.602 60.215,11.657 71.867,9.715 -3.886,-11.656 -17.48,-38.843 -54.386,-54.386 -33.016,-15.539 -62.153,-13.594 -73.809,-11.653 5.828,11.653 25.254,44.672 56.328,56.324"
         style="fill:#2f8375;fill-opacity:1;fill-rule:evenodd;stroke:none"
         id="path52"
         inkscape:connector-curvature="0" /><path
         d="m 777,997.613 c -40.785,-17.484 -62.152,-66.039 -62.152,-67.98 l -1.946,-5.828 5.832,-1.942 c 0,0 38.844,-9.715 87.403,11.653 48.558,23.308 60.211,66.039 60.211,67.984 v 3.88 l -3.883,1.94 c -1.945,0 -42.731,7.77 -85.465,-9.707 z m 5.828,-9.715 c 29.137,13.602 60.215,11.657 71.867,9.715 -3.886,-11.656 -17.48,-38.843 -54.386,-54.386 -33.016,-15.539 -62.153,-13.594 -73.809,-11.653 5.828,11.653 25.254,44.672 56.328,56.324 z"
         style="fill:none;stroke:#2f8375;stroke-width:10.78979969;stroke-linecap:round;stroke-linejoin:round;stroke-miterlimit:2.61310005;stroke-dasharray:none;stroke-opacity:1"
         id="path54"
         inkscape:connector-curvature="0" /><path
         d="m 852.75,1086.96 c -40.785,-17.48 -64.094,-64.1 -66.035,-67.98 l -3.887,-3.89 7.77,-1.94 c 0,-1.94 38.847,-9.71 87.406,11.65 48.555,23.31 60.211,64.1 60.211,64.1 l 1.941,5.83 -5.828,1.94 c -1.941,0 -38.844,7.77 -81.578,-9.71 z m 3.887,-7.77 c 31.078,11.65 58.269,9.71 69.922,7.77 -3.883,-11.66 -17.481,-36.91 -52.442,-52.44 -34.961,-15.54 -62.152,-15.54 -75.75,-11.66 7.77,11.66 29.137,42.73 58.27,56.33"
         style="fill:#2f8375;fill-opacity:1;fill-rule:evenodd;stroke:none"
         id="path56"
         inkscape:connector-curvature="0" /><path
         d="m 852.75,1086.96 c -40.785,-17.48 -64.094,-64.1 -66.035,-67.98 l -3.887,-3.89 7.77,-1.94 c 0,-1.94 38.847,-9.71 87.406,11.65 48.555,23.31 60.211,64.1 60.211,64.1 l 1.941,5.83 -5.828,1.94 c -1.941,0 -38.844,7.77 -81.578,-9.71 z m 3.887,-7.77 c 31.078,11.65 58.269,9.71 69.922,7.77 -3.883,-11.66 -17.481,-36.91 -52.442,-52.44 -34.961,-15.54 -62.152,-15.54 -75.75,-11.66 7.77,11.66 29.137,42.73 58.27,56.33 z"
         style="fill:none;stroke:#2f8375;stroke-width:10.78979969;stroke-linecap:round;stroke-linejoin:round;stroke-miterlimit:2.61310005;stroke-dasharray:none;stroke-opacity:1"
         id="path58"
         inkscape:connector-curvature="0" /><path
         d="m 936.273,1174.36 c -42.73,-17.48 -67.984,-64.09 -69.925,-67.98 l -3.883,-5.83 7.769,-1.94 c 0,0 38.844,-5.82 87.403,13.6 50.503,21.36 60.213,62.15 62.153,62.15 v 5.83 l -5.83,1.94 c 0,0 -34.956,7.77 -77.687,-7.77 z m 3.883,-9.71 c 29.137,11.65 56.324,9.71 67.984,7.77 -5.83,-9.71 -19.429,-34.96 -54.386,-50.5 -33.024,-13.6 -62.152,-13.6 -75.75,-13.6 9.711,13.6 31.074,44.68 62.152,56.33"
         style="fill:#2f8375;fill-opacity:1;fill-rule:evenodd;stroke:none"
         id="path60"
         inkscape:connector-curvature="0" /><path
         d="m 936.273,1174.36 c -42.73,-17.48 -67.984,-64.09 -69.925,-67.98 l -3.883,-5.83 7.769,-1.94 c 0,0 38.844,-5.82 87.403,13.6 50.503,21.36 60.213,62.15 62.153,62.15 v 5.83 l -5.83,1.94 c 0,0 -34.956,7.77 -77.687,-7.77 z m 3.883,-9.71 c 29.137,11.65 56.324,9.71 67.984,7.77 -5.83,-9.71 -19.429,-34.96 -54.386,-50.5 -33.024,-13.6 -62.152,-13.6 -75.75,-13.6 9.711,13.6 31.074,44.68 62.152,56.33 z"
         style="fill:none;stroke:#2f8375;stroke-width:10.78979969;stroke-linecap:round;stroke-linejoin:round;stroke-miterlimit:2.61310005;stroke-dasharray:none;stroke-opacity:1"
         id="path62"
         inkscape:connector-curvature="0" /><path
         d="m 1023.68,1255.94 c -42.735,-17.48 -69.926,-64.1 -71.867,-66.04 l -3.887,-5.83 7.769,-1.94 c 1.942,0 38.844,-5.83 87.405,13.6 48.56,21.36 62.15,58.27 62.15,60.21 l 1.95,5.83 h -5.83 c -1.94,0 -34.96,9.71 -77.69,-5.83 z m 3.88,-9.71 c 29.14,11.65 54.39,9.71 66.04,7.77 -5.83,-9.71 -19.42,-33.02 -54.39,-48.56 -33.01,-13.6 -60.206,-15.54 -73.804,-13.6 7.77,13.6 33.02,42.74 62.154,54.39"
         style="fill:#2f8375;fill-opacity:1;fill-rule:evenodd;stroke:none"
         id="path64"
         inkscape:connector-curvature="0" /><path
         d="m 1023.68,1255.94 c -42.735,-17.48 -69.926,-64.1 -71.867,-66.04 l -3.887,-5.83 7.769,-1.94 c 1.942,0 38.844,-5.83 87.405,13.6 48.56,21.36 62.15,58.27 62.15,60.21 l 1.95,5.83 h -5.83 c -1.94,0 -34.96,9.71 -77.69,-5.83 z m 3.88,-9.71 c 29.14,11.65 54.39,9.71 66.04,7.77 -5.83,-9.71 -19.42,-33.02 -54.39,-48.56 -33.01,-13.6 -60.206,-15.54 -73.804,-13.6 7.77,13.6 33.02,42.74 62.154,54.39 z"
         style="fill:none;stroke:#2f8375;stroke-width:10.78979969;stroke-linecap:round;stroke-linejoin:round;stroke-miterlimit:2.61310005;stroke-dasharray:none;stroke-opacity:1"
         id="path66"
         inkscape:connector-curvature="0" /><path
         d="m 1114.96,1331.69 c -40.78,-17.48 -71.86,-64.1 -73.8,-66.04 l -5.83,-5.82 7.77,-1.95 c 1.94,0 40.79,-3.88 89.35,15.54 50.5,19.42 62.15,54.39 62.15,58.27 l 1.94,3.89 h -5.83 c 0,1.94 -31.07,11.65 -75.75,-3.89 z m 5.83,-9.71 c 27.19,11.65 50.5,9.71 62.16,5.83 -5.83,-9.72 -19.43,-31.08 -54.39,-44.68 -33.02,-13.59 -60.21,-15.54 -73.81,-15.54 9.71,13.6 34.96,42.74 66.04,54.39"
         style="fill:#2f8375;fill-opacity:1;fill-rule:evenodd;stroke:none"
         id="path68"
         inkscape:connector-curvature="0" /><path
         d="m 1114.96,1331.69 c -40.78,-17.48 -71.86,-64.1 -73.8,-66.04 l -5.83,-5.82 7.77,-1.95 c 1.94,0 40.79,-3.88 89.35,15.54 50.5,19.42 62.15,54.39 62.15,58.27 l 1.94,3.89 h -5.83 c 0,1.94 -31.07,11.65 -75.75,-3.89 z m 5.83,-9.71 c 27.19,11.65 50.5,9.71 62.16,5.83 -5.83,-9.72 -19.43,-31.08 -54.39,-44.68 -33.02,-13.59 -60.21,-15.54 -73.81,-15.54 9.71,13.6 34.96,42.74 66.04,54.39 z"
         style="fill:none;stroke:#2f8375;stroke-width:10.78979969;stroke-linecap:round;stroke-linejoin:round;stroke-miterlimit:2.61310005;stroke-dasharray:none;stroke-opacity:1"
         id="path70"
         inkscape:connector-curvature="0" /><path
         d="m 1210.14,1397.73 c -42.73,-15.54 -77.69,-62.15 -79.64,-64.1 l -3.88,-5.82 7.77,-1.95 c 1.94,0 40.79,-1.94 89.34,15.54 48.56,21.37 62.16,54.39 62.16,56.33 l 1.94,3.88 -5.83,1.95 c 0,0 -29.13,9.71 -71.86,-5.83 z m 3.88,-7.77 c 27.19,9.71 50.5,7.77 60.21,5.83 -5.82,-9.72 -21.36,-31.08 -56.32,-44.68 -31.08,-11.65 -58.27,-15.53 -71.87,-15.53 9.71,13.59 36.91,42.73 67.98,54.38"
         style="fill:#2f8375;fill-opacity:1;fill-rule:evenodd;stroke:none"
         id="path72"
         inkscape:connector-curvature="0" /><path
         d="m 1210.14,1397.73 c -42.73,-15.54 -77.69,-62.15 -79.64,-64.1 l -3.88,-5.82 7.77,-1.95 c 1.94,0 40.79,-1.94 89.34,15.54 48.56,21.37 62.16,54.39 62.16,56.33 l 1.94,3.88 -5.83,1.95 c 0,0 -29.13,9.71 -71.86,-5.83 z m 3.88,-7.77 c 27.19,9.71 50.5,7.77 60.21,5.83 -5.82,-9.72 -21.36,-31.08 -56.32,-44.68 -31.08,-11.65 -58.27,-15.53 -71.87,-15.53 9.71,13.59 36.91,42.73 67.98,54.38 z"
         style="fill:none;stroke:#2f8375;stroke-width:10.78979969;stroke-linecap:round;stroke-linejoin:round;stroke-miterlimit:2.61310005;stroke-dasharray:none;stroke-opacity:1"
         id="path74"
         inkscape:connector-curvature="0" /><path
         d="m 561.406,818.922 c -1.941,-1.945 -31.074,-40.789 -33.019,-85.461 -3.883,-46.617 33.019,-81.582 34.961,-83.523 l 3.886,-3.883 3.883,3.883 c 0,1.941 31.078,29.132 33.02,83.523 1.945,52.437 -34.965,85.461 -36.903,85.461 l -3.886,3.883 z m -25.25,-91.289 c 0,1.941 1.942,3.883 1.942,5.828 1.941,33.016 19.422,64.094 27.191,73.805 9.711,-9.711 29.137,-33.02 29.137,-69.922 0,-1.946 0,-3.883 0,-3.883 -1.942,-38.848 -19.426,-64.098 -27.192,-71.867 -7.769,7.769 -31.078,34.961 -31.078,66.039"
         style="fill:#2f8375;fill-opacity:1;fill-rule:evenodd;stroke:none"
         id="path76"
         inkscape:connector-curvature="0" /><path
         d="m 561.406,818.922 c -1.941,-1.945 -31.074,-40.789 -33.019,-85.461 -3.883,-46.617 33.019,-81.582 34.961,-83.523 l 3.886,-3.883 3.883,3.883 c 0,1.941 31.078,29.132 33.02,83.523 1.945,52.437 -34.965,85.461 -36.903,85.461 l -3.886,3.883 z m -25.25,-91.289 c 0,1.941 1.942,3.883 1.942,5.828 1.941,33.016 19.422,64.094 27.191,73.805 9.711,-9.711 29.137,-33.02 29.137,-69.922 0,-1.946 0,-3.883 0,-3.883 -1.942,-38.848 -19.426,-64.098 -27.192,-71.867 -7.769,7.769 -31.078,34.961 -31.078,66.039 z"
         style="fill:none;stroke:#2f8375;stroke-width:10.78979969;stroke-linecap:round;stroke-linejoin:round;stroke-miterlimit:2.61310005;stroke-dasharray:none;stroke-opacity:1"
         id="path78"
         inkscape:connector-curvature="0" /><path
         d="m 619.676,919.918 c -1.942,0 -25.25,-27.191 -34.961,-64.094 0,-5.828 -1.945,-11.656 -1.945,-17.48 -5.829,-44.676 25.25,-81.578 27.195,-81.578 l 3.883,-5.825 3.886,3.883 c 0,1.942 31.075,27.192 36.903,79.637 7.769,52.441 -25.25,85.457 -27.192,85.457 l -3.882,3.887 z m -29.137,-91.285 c 0,1.941 0,5.828 1.945,9.711 0,5.824 0,9.707 1.942,13.594 7.769,29.136 21.367,48.558 29.137,56.328 7.765,-7.77 23.304,-29.133 23.304,-62.153 0,-1.945 0,-5.828 -1.945,-9.715 -3.883,-38.843 -23.305,-62.152 -31.074,-69.921 -5.828,9.711 -23.309,33.019 -23.309,62.156"
         style="fill:#2f8375;fill-opacity:1;fill-rule:evenodd;stroke:none"
         id="path80"
         inkscape:connector-curvature="0" /><path
         d="m 619.676,919.918 c -1.942,0 -25.25,-27.191 -34.961,-64.094 0,-5.828 -1.945,-11.656 -1.945,-17.48 -5.829,-44.676 25.25,-81.578 27.195,-81.578 l 3.883,-5.825 3.886,3.883 c 0,1.942 31.075,27.192 36.903,79.637 7.769,52.441 -25.25,85.457 -27.192,85.457 l -3.882,3.887 z m -29.137,-91.285 c 0,1.941 0,5.828 1.945,9.711 0,5.824 0,9.707 1.942,13.594 7.769,29.136 21.367,48.558 29.137,56.328 7.765,-7.77 23.304,-29.133 23.304,-62.153 0,-1.945 0,-5.828 -1.945,-9.715 -3.883,-38.843 -23.305,-62.152 -31.074,-69.921 -5.828,9.711 -23.309,33.019 -23.309,62.156 z"
         style="fill:none;stroke:#2f8375;stroke-width:10.78979969;stroke-linecap:round;stroke-linejoin:round;stroke-miterlimit:2.61310005;stroke-dasharray:none;stroke-opacity:1"
         id="path82"
         inkscape:connector-curvature="0" /><path
         d="m 685.715,1015.09 c 0,0 -25.25,-23.305 -38.848,-60.207 0,-5.828 -1.945,-9.711 -3.883,-15.539 -7.769,-42.731 19.422,-81.578 21.364,-83.52 l 1.945,-3.886 3.883,1.941 c 1.941,1.945 33.019,27.195 42.726,75.754 11.657,50.496 -17.476,85.457 -19.418,85.457 l -3.886,3.89 z M 650.75,921.863 c 0,5.825 1.941,9.711 1.941,15.539 1.946,3.883 1.946,9.711 3.887,13.598 9.715,27.191 25.25,44.668 33.02,52.44 5.828,-7.772 15.539,-25.249 15.539,-52.44 0,-5.828 0,-11.656 -1.942,-19.426 -5.828,-34.961 -25.25,-56.324 -33.019,-66.039 -5.828,9.715 -19.426,31.078 -19.426,56.328"
         style="fill:#2f8375;fill-opacity:1;fill-rule:evenodd;stroke:none"
         id="path84"
         inkscape:connector-curvature="0" /><path
         d="m 685.715,1015.09 c 0,0 -25.25,-23.305 -38.848,-60.207 0,-5.828 -1.945,-9.711 -3.883,-15.539 -7.769,-42.731 19.422,-81.578 21.364,-83.52 l 1.945,-3.886 3.883,1.941 c 1.941,1.945 33.019,27.195 42.726,75.754 11.657,50.496 -17.476,85.457 -19.418,85.457 l -3.886,3.89 z M 650.75,921.863 c 0,5.825 1.941,9.711 1.941,15.539 1.946,3.883 1.946,9.711 3.887,13.598 9.715,27.191 25.25,44.668 33.02,52.44 5.828,-7.772 15.539,-25.249 15.539,-52.44 0,-5.828 0,-11.656 -1.942,-19.426 -5.828,-34.961 -25.25,-56.324 -33.019,-66.039 -5.828,9.715 -19.426,31.078 -19.426,56.328 z"
         style="fill:none;stroke:#2f8375;stroke-width:10.78979969;stroke-linecap:round;stroke-linejoin:round;stroke-miterlimit:2.61310005;stroke-dasharray:none;stroke-opacity:1"
         id="path86"
         inkscape:connector-curvature="0" /><path
         d="m 759.523,1104.44 c -1.945,0 -27.195,-21.37 -42.734,-56.33 -1.941,-5.82 -3.887,-9.71 -5.824,-15.54 -9.715,-42.726 11.652,-83.515 13.594,-83.515 l 1.941,-5.828 5.828,3.886 c 0,0 33.02,23.309 44.672,71.867 15.539,50.5 -9.707,83.52 -11.652,85.46 l -3.883,3.88 z m -40.789,-95.17 c 0,5.82 0,13.59 1.942,21.36 1.941,3.89 3.883,9.71 5.824,11.66 9.715,27.19 27.195,44.67 34.965,52.44 3.883,-7.77 11.652,-23.31 11.652,-44.68 0,-9.71 -1.941,-17.48 -3.887,-27.19 -9.707,-34.962 -29.132,-54.383 -38.843,-64.09 -3.887,9.707 -11.653,27.187 -11.653,50.5"
         style="fill:#2f8375;fill-opacity:1;fill-rule:evenodd;stroke:none"
         id="path88"
         inkscape:connector-curvature="0" /><path
         d="m 759.523,1104.44 c -1.945,0 -27.195,-21.37 -42.734,-56.33 -1.941,-5.82 -3.887,-9.71 -5.824,-15.54 -9.715,-42.726 11.652,-83.515 13.594,-83.515 l 1.941,-5.828 5.828,3.886 c 0,0 33.02,23.309 44.672,71.867 15.539,50.5 -9.707,83.52 -11.652,85.46 l -3.883,3.88 z m -40.789,-95.17 c 0,5.82 0,13.59 1.942,21.36 1.941,3.89 3.883,9.71 5.824,11.66 9.715,27.19 27.195,44.67 34.965,52.44 3.883,-7.77 11.652,-23.31 11.652,-44.68 0,-9.71 -1.941,-17.48 -3.887,-27.19 -9.707,-34.962 -29.132,-54.383 -38.843,-64.09 -3.887,9.707 -11.653,27.187 -11.653,50.5 z"
         style="fill:none;stroke:#2f8375;stroke-width:10.78979969;stroke-linecap:round;stroke-linejoin:round;stroke-miterlimit:2.61310005;stroke-dasharray:none;stroke-opacity:1"
         id="path90"
         inkscape:connector-curvature="0" /><path
         d="m 837.215,1187.96 c 0,0 -27.192,-17.48 -46.617,-54.39 0,-3.88 -1.942,-7.77 -5.828,-13.59 -11.653,-40.79 3.886,-81.58 5.828,-83.52 l 1.941,-5.83 5.828,3.89 c 0,0 33.024,21.36 50.5,69.92 19.422,46.61 -3.887,81.58 -3.887,81.58 l -1.937,5.82 z m -46.617,-101 c 0,9.71 1.941,19.42 5.828,29.13 0,5.83 1.941,9.71 3.883,13.6 13.597,25.25 31.082,40.79 38.847,46.61 3.887,-5.82 7.77,-17.48 7.77,-34.96 0,-9.71 -1.946,-21.36 -7.77,-34.96 -11.652,-33.02 -33.019,-52.44 -42.73,-60.21 -1.946,7.77 -5.828,21.37 -5.828,40.79"
         style="fill:#2f8375;fill-opacity:1;fill-rule:evenodd;stroke:none"
         id="path92"
         inkscape:connector-curvature="0" /><path
         d="m 837.215,1187.96 c 0,0 -27.192,-17.48 -46.617,-54.39 0,-3.88 -1.942,-7.77 -5.828,-13.59 -11.653,-40.79 3.886,-81.58 5.828,-83.52 l 1.941,-5.83 5.828,3.89 c 0,0 33.024,21.36 50.5,69.92 19.422,46.61 -3.887,81.58 -3.887,81.58 l -1.937,5.82 z m -46.617,-101 c 0,9.71 1.941,19.42 5.828,29.13 0,5.83 1.941,9.71 3.883,13.6 13.597,25.25 31.082,40.79 38.847,46.61 3.887,-5.82 7.77,-17.48 7.77,-34.96 0,-9.71 -1.946,-21.36 -7.77,-34.96 -11.652,-33.02 -33.019,-52.44 -42.73,-60.21 -1.946,7.77 -5.828,21.37 -5.828,40.79 z"
         style="fill:none;stroke:#2f8375;stroke-width:10.78979969;stroke-linecap:round;stroke-linejoin:round;stroke-miterlimit:2.61310005;stroke-dasharray:none;stroke-opacity:1"
         id="path94"
         inkscape:connector-curvature="0" /><path
         d="m 922.676,1265.65 c -1.946,-1.94 -29.133,-13.6 -50.5,-50.5 -1.942,-5.83 -3.887,-9.71 -5.828,-15.54 -15.539,-38.84 -5.828,-79.63 -3.883,-81.57 v -7.77 l 7.769,3.88 c 0,0 33.02,21.37 54.383,66.04 23.309,46.61 5.828,81.58 3.883,83.52 l -1.941,3.88 z M 868.289,1153 c 0,13.6 1.945,29.13 7.774,44.67 1.941,3.88 1.941,7.77 5.824,11.65 13.597,25.26 33.019,38.85 40.789,44.68 1.941,-5.83 3.883,-13.6 3.883,-25.25 0,-13.6 -1.942,-27.2 -9.711,-44.68 -15.539,-31.07 -36.903,-48.55 -46.614,-56.32 -1.945,5.82 -1.945,15.54 -1.945,25.25"
         style="fill:#2f8375;fill-opacity:1;fill-rule:evenodd;stroke:none"
         id="path96"
         inkscape:connector-curvature="0" /><path
         d="m 922.676,1265.65 c -1.946,-1.94 -29.133,-13.6 -50.5,-50.5 -1.942,-5.83 -3.887,-9.71 -5.828,-15.54 -15.539,-38.84 -5.828,-79.63 -3.883,-81.57 v -7.77 l 7.769,3.88 c 0,0 33.02,21.37 54.383,66.04 23.309,46.61 5.828,81.58 3.883,83.52 l -1.941,3.88 z M 868.289,1153 c 0,13.6 1.945,29.13 7.774,44.67 1.941,3.88 1.941,7.77 5.824,11.65 13.597,25.26 33.019,38.85 40.789,44.68 1.941,-5.83 3.883,-13.6 3.883,-25.25 0,-13.6 -1.942,-27.2 -9.711,-44.68 -15.539,-31.07 -36.903,-48.55 -46.614,-56.32 -1.945,5.82 -1.945,15.54 -1.945,25.25 z"
         style="fill:none;stroke:#2f8375;stroke-width:10.78979969;stroke-linecap:round;stroke-linejoin:round;stroke-miterlimit:2.61310005;stroke-dasharray:none;stroke-opacity:1"
         id="path98"
         inkscape:connector-curvature="0" /><path
         d="m 1012.02,1335.58 c -1.94,0 -31.075,-9.72 -54.383,-46.62 -1.942,-3.89 -3.883,-7.77 -7.766,-13.6 -15.543,-36.9 -11.656,-81.57 -11.656,-83.52 l 1.941,-5.82 5.828,3.88 c 1.942,0 34.961,19.42 62.156,62.15 25.25,44.68 11.65,79.64 9.71,81.58 l -1.94,5.83 z m -64.094,-126.26 c 0,15.54 1.945,40.79 11.656,62.16 1.941,5.82 3.883,7.77 5.824,11.65 17.481,25.25 36.904,36.91 44.674,42.73 1.94,-5.82 1.94,-9.71 1.94,-17.48 0,-13.59 -1.94,-31.08 -13.594,-50.5 -17.481,-31.08 -38.844,-48.56 -50.5,-56.33 0,3.89 0,5.83 0,7.77"
         style="fill:#2f8375;fill-opacity:1;fill-rule:evenodd;stroke:none"
         id="path100"
         inkscape:connector-curvature="0" /><path
         d="m 1012.02,1335.58 c -1.94,0 -31.075,-9.72 -54.383,-46.62 -1.942,-3.89 -3.883,-7.77 -7.766,-13.6 -15.543,-36.9 -11.656,-81.57 -11.656,-83.52 l 1.941,-5.82 5.828,3.88 c 1.942,0 34.961,19.42 62.156,62.15 25.25,44.68 11.65,79.64 9.71,81.58 l -1.94,5.83 z m -64.094,-126.26 c 0,15.54 1.945,40.79 11.656,62.16 1.941,5.82 3.883,7.77 5.824,11.65 17.481,25.25 36.904,36.91 44.674,42.73 1.94,-5.82 1.94,-9.71 1.94,-17.48 0,-13.59 -1.94,-31.08 -13.594,-50.5 -17.481,-31.08 -38.844,-48.56 -50.5,-56.33 0,3.89 0,5.83 0,7.77 z"
         style="fill:none;stroke:#2f8375;stroke-width:10.78979969;stroke-linecap:round;stroke-linejoin:round;stroke-miterlimit:2.61310005;stroke-dasharray:none;stroke-opacity:1"
         id="path102"
         inkscape:connector-curvature="0" /><path
         d="m 1107.2,1401.61 c -1.95,0 -31.08,-7.77 -58.27,-44.67 -3.89,-1.94 -5.83,-7.77 -7.77,-11.65 -19.43,-36.91 -21.37,-81.58 -21.37,-83.52 V 1254 l 7.77,3.88 c 1.94,1.95 36.9,17.48 66.04,60.21 29.13,42.73 19.42,79.64 19.42,79.64 l -1.94,5.83 z m -58.27,-62.15 c 1.94,3.88 5.82,9.71 7.77,11.65 17.48,25.25 38.84,34.96 46.61,38.85 1.94,-1.94 1.94,-3.89 1.94,-7.77 0,-13.6 -3.88,-34.96 -21.36,-58.27 -19.43,-29.13 -40.79,-44.67 -52.44,-52.44 1.94,13.59 3.88,44.67 17.48,67.98"
         style="fill:#2f8375;fill-opacity:1;fill-rule:evenodd;stroke:none"
         id="path104"
         inkscape:connector-curvature="0" /><path
         d="m 1107.2,1401.61 c -1.95,0 -31.08,-7.77 -58.27,-44.67 -3.89,-1.94 -5.83,-7.77 -7.77,-11.65 -19.43,-36.91 -21.37,-81.58 -21.37,-83.52 V 1254 l 7.77,3.88 c 1.94,1.95 36.9,17.48 66.04,60.21 29.13,42.73 19.42,79.64 19.42,79.64 l -1.94,5.83 z m -58.27,-62.15 c 1.94,3.88 5.82,9.71 7.77,11.65 17.48,25.25 38.84,34.96 46.61,38.85 1.94,-1.94 1.94,-3.89 1.94,-7.77 0,-13.6 -3.88,-34.96 -21.36,-58.27 -19.43,-29.13 -40.79,-44.67 -52.44,-52.44 1.94,13.59 3.88,44.67 17.48,67.98 z"
         style="fill:none;stroke:#2f8375;stroke-width:10.78979969;stroke-linecap:round;stroke-linejoin:round;stroke-miterlimit:2.61310005;stroke-dasharray:none;stroke-opacity:1"
         id="path106"
         inkscape:connector-curvature="0" /><path
         d="m 1206.25,1461.82 c -3.88,0 -33.02,-5.82 -62.15,-40.78 -31.08,-34.97 -36.9,-93.23 -36.9,-95.18 l -1.95,-7.77 7.77,1.95 c 1.94,1.94 36.91,17.48 69.93,58.27 33.01,40.78 27.19,77.69 27.19,79.63 v 3.88 z m -54.38,-48.55 c 19.42,25.25 40.79,33.02 48.56,36.9 v 0 c 0,-11.65 -1.95,-36.9 -25.25,-66.04 -21.37,-27.19 -44.68,-42.73 -56.33,-50.5 1.94,17.48 11.65,56.33 33.02,79.64"
         style="fill:#2f8375;fill-opacity:1;fill-rule:evenodd;stroke:none"
         id="path108"
         inkscape:connector-curvature="0" /><path
         d="m 1206.25,1461.82 c -3.88,0 -33.02,-5.82 -62.15,-40.78 -31.08,-34.97 -36.9,-93.23 -36.9,-95.18 l -1.95,-7.77 7.77,1.95 c 1.94,1.94 36.91,17.48 69.93,58.27 33.01,40.78 27.19,77.69 27.19,79.63 v 3.88 z m -54.38,-48.55 c 19.42,25.25 40.79,33.02 48.56,36.9 v 0 c 0,-11.65 -1.95,-36.9 -25.25,-66.04 -21.37,-27.19 -44.68,-42.73 -56.33,-50.5 1.94,17.48 11.65,56.33 33.02,79.64 z"
         style="fill:none;stroke:#2f8375;stroke-width:10.78979969;stroke-linecap:round;stroke-linejoin:round;stroke-miterlimit:2.61310005;stroke-dasharray:none;stroke-opacity:1"
         id="path110"
         inkscape:connector-curvature="0" /><path
         d="m 262.289,970.422 c 0,-240.848 130.137,-471.984 339.906,-604.063 l 7.77,-3.882 5.828,7.769 c 1.941,1.942 1.941,3.883 1.941,5.828 0,3.883 -3.886,9.711 -5.828,11.653 l -11.656,11.652 c -44.668,48.559 -54.383,95.176 -54.383,130.137 0,40.789 13.598,66.039 15.539,67.98 l 1.942,7.77 -3.883,5.824 c -87.406,99.058 -134.024,223.371 -134.024,359.332 0,299.118 240.852,541.898 541.911,541.898 83.518,0 163.148,-19.42 236.958,-54.38 l 7.77,-3.88 108.77,124.3 -11.65,7.78 c -102.95,56.32 -221.43,87.4 -341.848,87.4 -388.465,0 -705.063,-316.6 -705.063,-703.118 z m 23.309,0 c 0,374.868 304.941,679.808 681.754,679.808 110.708,0 219.478,-27.19 318.538,-77.69 -15.54,-17.49 -71.87,-81.58 -79.64,-91.29 -75.75,34.96 -155.38,54.39 -238.898,54.39 -312.715,0 -565.215,-254.45 -565.215,-565.218 0,-139.848 46.617,-268.039 135.961,-369.039 -5.828,-11.656 -15.539,-36.906 -15.539,-71.867 0,-27.192 7.773,-62.157 27.195,-97.118 C 384.656,562.535 285.598,762.594 285.598,970.422"
         style="fill:#2f8375;fill-opacity:1;fill-rule:evenodd;stroke:none"
         id="path112"
         inkscape:connector-curvature="0" /><path
         d="m 262.289,970.422 c 0,-240.848 130.137,-471.984 339.906,-604.063 l 7.77,-3.882 5.828,7.769 c 1.941,1.942 1.941,3.883 1.941,5.828 0,3.883 -3.886,9.711 -5.828,11.653 l -11.656,11.652 c -44.668,48.559 -54.383,95.176 -54.383,130.137 0,40.789 13.598,66.039 15.539,67.98 l 1.942,7.77 -3.883,5.824 c -87.406,99.058 -134.024,223.371 -134.024,359.332 0,299.118 240.852,541.898 541.911,541.898 83.518,0 163.148,-19.42 236.958,-54.38 l 7.77,-3.88 108.77,124.3 -11.65,7.78 c -102.95,56.32 -221.43,87.4 -341.848,87.4 -388.465,0 -705.063,-316.6 -705.063,-703.118 z m 23.309,0 c 0,374.868 304.941,679.808 681.754,679.808 110.708,0 219.478,-27.19 318.538,-77.69 -15.54,-17.49 -71.87,-81.58 -79.64,-91.29 -75.75,34.96 -155.38,54.39 -238.898,54.39 -312.715,0 -565.215,-254.45 -565.215,-565.218 0,-139.848 46.617,-268.039 135.961,-369.039 -5.828,-11.656 -15.539,-36.906 -15.539,-71.867 0,-27.192 7.773,-62.157 27.195,-97.118 C 384.656,562.535 285.598,762.594 285.598,970.422 Z"
         style="fill:none;stroke:#2f8375;stroke-width:10.78979969;stroke-linecap:round;stroke-linejoin:round;stroke-miterlimit:2.61310005;stroke-dasharray:none;stroke-opacity:1"
         id="path114"
         inkscape:connector-curvature="0" /><path
         d="m 1214.02,1477.36 c -77.69,38.85 -161.21,58.28 -246.668,58.28 -312.715,0 -565.215,-254.45 -565.215,-565.218 0,-141.789 48.558,-271.926 139.847,-374.867 l 9.711,-9.711 42.731,64.094 -1.942,3.886 c -3.886,0 -5.828,0 -9.714,0 1.945,1.942 1.945,5.828 3.886,7.77 -3.886,3.886 -7.769,7.769 -9.715,11.652 -3.882,-5.828 -7.769,-9.711 -9.707,-11.652 -7.769,7.769 -31.078,34.961 -31.078,66.039 0,1.941 1.942,1.941 1.942,3.883 -40.789,69.925 -62.157,149.558 -62.157,238.906 0,269.978 219.485,489.468 491.411,489.468 66.038,0 130.128,-13.6 190.348,-38.85 5.82,7.76 11.65,11.65 19.42,15.53 -66.04,31.08 -135.96,46.62 -209.768,46.62 -283.579,0 -512.774,-231.14 -512.774,-512.768 0,-124.309 36.906,-231.137 112.656,-322.426 -3.886,-5.828 -11.652,-15.539 -17.48,-25.25 -81.578,95.172 -124.313,215.598 -124.313,347.676 0,299.118 240.852,541.898 541.911,541.898 77.688,0 155.378,-17.48 227.248,-50.5 -3.89,-5.82 -5.83,-11.65 -9.71,-19.42 7.77,3.89 13.59,7.77 15.54,7.77 v 0 c 0,-7.77 0,-25.25 -9.72,-44.67 h 1.95 l 31.07,67.98 -9.71,3.88"
         style="fill:#2f8375;fill-opacity:1;fill-rule:evenodd;stroke:none"
         id="path116"
         inkscape:connector-curvature="0" /><path
         d="m 1214.02,1477.36 c -77.69,38.85 -161.21,58.28 -246.668,58.28 -312.715,0 -565.215,-254.45 -565.215,-565.218 0,-141.789 48.558,-271.926 139.847,-374.867 l 9.711,-9.711 42.731,64.094 -1.942,3.886 c -3.886,0 -5.828,0 -9.714,0 1.945,1.942 1.945,5.828 3.886,7.77 -3.886,3.886 -7.769,7.769 -9.715,11.652 -3.882,-5.828 -7.769,-9.711 -9.707,-11.652 -7.769,7.769 -31.078,34.961 -31.078,66.039 0,1.941 1.942,1.941 1.942,3.883 -40.789,69.925 -62.157,149.558 -62.157,238.906 0,269.978 219.485,489.468 491.411,489.468 66.038,0 130.128,-13.6 190.348,-38.85 5.82,7.76 11.65,11.65 19.42,15.53 -66.04,31.08 -135.96,46.62 -209.768,46.62 -283.579,0 -512.774,-231.14 -512.774,-512.768 0,-124.309 36.906,-231.137 112.656,-322.426 -3.886,-5.828 -11.652,-15.539 -17.48,-25.25 -81.578,95.172 -124.313,215.598 -124.313,347.676 0,299.118 240.852,541.898 541.911,541.898 77.688,0 155.378,-17.48 227.248,-50.5 -3.89,-5.82 -5.83,-11.65 -9.71,-19.42 7.77,3.89 13.59,7.77 15.54,7.77 v 0 c 0,-7.77 0,-25.25 -9.72,-44.67 h 1.95 l 31.07,67.98 z"
         style="fill:none;stroke:#2f8375;stroke-width:10.78979969;stroke-linecap:round;stroke-linejoin:round;stroke-miterlimit:2.61310005;stroke-dasharray:none;stroke-opacity:1"
         id="path118"
         inkscape:connector-curvature="0" /><path
         d="m 1208.2,1588.08 -54.39,-67.98 c 5.83,-1.95 9.71,-3.89 15.54,-5.83 l 54.38,67.98 c -5.82,1.94 -9.71,3.89 -15.53,5.83"
         style="fill:#2f8375;fill-opacity:1;fill-rule:evenodd;stroke:none"
         id="path120"
         inkscape:connector-curvature="0" /><path
         d="m 1208.2,1588.08 -54.39,-67.98 c 5.83,-1.95 9.71,-3.89 15.54,-5.83 l 54.38,67.98 c -5.82,1.94 -9.71,3.89 -15.53,5.83 z"
         style="fill:none;stroke:#2f8375;stroke-width:10.78979969;stroke-linecap:round;stroke-linejoin:round;stroke-miterlimit:2.61310005;stroke-dasharray:none;stroke-opacity:1"
         id="path122"
         inkscape:connector-curvature="0" /><path
         d="m 1103.31,1619.15 -31.08,-75.75 c 3.89,-1.94 9.72,-3.88 15.54,-3.88 l 31.08,77.69 c -5.83,0 -11.65,1.94 -15.54,1.94"
         style="fill:#2f8375;fill-opacity:1;fill-rule:evenodd;stroke:none"
         id="path124"
         inkscape:connector-curvature="0" /><path
         d="m 1103.31,1619.15 -31.08,-75.75 c 3.89,-1.94 9.72,-3.88 15.54,-3.88 l 31.08,77.69 c -5.83,0 -11.65,1.94 -15.54,1.94 z"
         style="fill:none;stroke:#2f8375;stroke-width:10.78979969;stroke-linecap:round;stroke-linejoin:round;stroke-miterlimit:2.61310005;stroke-dasharray:none;stroke-opacity:1"
         id="path126"
         inkscape:connector-curvature="0" /><path
         d="m 977.059,1634.69 -7.766,-83.52 c 5.828,0 9.711,0 15.535,0 l 7.77,81.58 c -5.825,1.94 -9.711,1.94 -15.539,1.94"
         style="fill:#2f8375;fill-opacity:1;fill-rule:evenodd;stroke:none"
         id="path128"
         inkscape:connector-curvature="0" /><path
         d="m 977.059,1634.69 -7.766,-83.52 c 5.828,0 9.711,0 15.535,0 l 7.77,81.58 c -5.825,1.94 -9.711,1.94 -15.539,1.94 z"
         style="fill:none;stroke:#2f8375;stroke-width:10.78979969;stroke-linecap:round;stroke-linejoin:round;stroke-miterlimit:2.61310005;stroke-dasharray:none;stroke-opacity:1"
         id="path130"
         inkscape:connector-curvature="0" /><path
         d="m 854.695,1624.98 15.539,-81.58 c 5.829,1.94 9.711,1.94 15.539,1.94 l -15.539,81.58 c -5.828,0 -9.714,-1.94 -15.539,-1.94"
         style="fill:#2f8375;fill-opacity:1;fill-rule:evenodd;stroke:none"
         id="path132"
         inkscape:connector-curvature="0" /><path
         d="m 854.695,1624.98 15.539,-81.58 c 5.829,1.94 9.711,1.94 15.539,1.94 l -15.539,81.58 c -5.828,0 -9.714,-1.94 -15.539,-1.94 z"
         style="fill:none;stroke:#2f8375;stroke-width:10.78979969;stroke-linecap:round;stroke-linejoin:round;stroke-miterlimit:2.61310005;stroke-dasharray:none;stroke-opacity:1"
         id="path134"
         inkscape:connector-curvature="0" /><path
         d="m 736.215,1593.9 36.902,-75.75 c 3.883,1.95 9.711,3.89 13.598,5.83 l -36.902,73.81 c -3.887,-1.94 -9.715,-3.89 -13.598,-3.89"
         style="fill:#2f8375;fill-opacity:1;fill-rule:evenodd;stroke:none"
         id="path136"
         inkscape:connector-curvature="0" /><path
         d="m 736.215,1593.9 36.902,-75.75 c 3.883,1.95 9.711,3.89 13.598,5.83 l -36.902,73.81 c -3.887,-1.94 -9.715,-3.89 -13.598,-3.89 z"
         style="fill:none;stroke:#2f8375;stroke-width:10.78979969;stroke-linecap:round;stroke-linejoin:round;stroke-miterlimit:2.61310005;stroke-dasharray:none;stroke-opacity:1"
         id="path138"
         inkscape:connector-curvature="0" /><path
         d="m 623.563,1537.57 54.382,-62.15 c 3.883,1.94 9.711,5.83 13.598,7.77 l -56.328,62.15 c -3.887,-1.94 -7.77,-3.88 -11.652,-7.77"
         style="fill:#2f8375;fill-opacity:1;fill-rule:evenodd;stroke:none"
         id="path140"
         inkscape:connector-curvature="0" /><path
         d="m 623.563,1537.57 54.382,-62.15 c 3.883,1.94 9.711,5.83 13.598,7.77 l -56.328,62.15 c -3.887,-1.94 -7.77,-3.88 -11.652,-7.77 z"
         style="fill:none;stroke:#2f8375;stroke-width:10.78979969;stroke-linecap:round;stroke-linejoin:round;stroke-miterlimit:2.61310005;stroke-dasharray:none;stroke-opacity:1"
         id="path142"
         inkscape:connector-curvature="0" /><path
         d="m 520.617,1461.82 69.922,-48.55 c 3.887,3.88 7.774,5.82 11.656,9.71 l -69.925,48.56 c -3.883,-3.89 -7.766,-5.83 -11.653,-9.72"
         style="fill:#2f8375;fill-opacity:1;fill-rule:evenodd;stroke:none"
         id="path144"
         inkscape:connector-curvature="0" /><path
         d="m 520.617,1461.82 69.922,-48.55 c 3.887,3.88 7.774,5.82 11.656,9.71 l -69.925,48.56 c -3.883,-3.89 -7.766,-5.83 -11.653,-9.72 z"
         style="fill:none;stroke:#2f8375;stroke-width:10.78979969;stroke-linecap:round;stroke-linejoin:round;stroke-miterlimit:2.61310005;stroke-dasharray:none;stroke-opacity:1"
         id="path146"
         inkscape:connector-curvature="0" /><path
         d="m 433.211,1364.71 81.578,-31.08 c 1.945,5.83 5.828,9.71 9.715,13.6 l -81.578,31.08 c -3.887,-3.89 -5.828,-7.77 -9.715,-13.6"
         style="fill:#2f8375;fill-opacity:1;fill-rule:evenodd;stroke:none"
         id="path148"
         inkscape:connector-curvature="0" /><path
         d="m 433.211,1364.71 81.578,-31.08 c 1.945,5.83 5.828,9.71 9.715,13.6 l -81.578,31.08 c -3.887,-3.89 -5.828,-7.77 -9.715,-13.6 z"
         style="fill:none;stroke:#2f8375;stroke-width:10.78979969;stroke-linecap:round;stroke-linejoin:round;stroke-miterlimit:2.61310005;stroke-dasharray:none;stroke-opacity:1"
         id="path150"
         inkscape:connector-curvature="0" /><path
         d="m 365.23,1254 87.407,-11.66 c 3.883,3.89 5.828,9.71 7.769,13.6 L 373,1267.59 c -1.941,-3.88 -3.883,-7.76 -7.77,-13.59"
         style="fill:#2f8375;fill-opacity:1;fill-rule:evenodd;stroke:none"
         id="path152"
         inkscape:connector-curvature="0" /><path
         d="m 365.23,1254 87.407,-11.66 c 3.883,3.89 5.828,9.71 7.769,13.6 L 373,1267.59 c -1.941,-3.88 -3.883,-7.76 -7.77,-13.59 z"
         style="fill:none;stroke:#2f8375;stroke-width:10.78979969;stroke-linecap:round;stroke-linejoin:round;stroke-miterlimit:2.61310005;stroke-dasharray:none;stroke-opacity:1"
         id="path154"
         inkscape:connector-curvature="0" /><path
         d="m 322.504,1131.63 87.402,7.77 c 1.942,5.83 3.883,11.65 3.883,15.54 l -87.402,-7.77 c -1.942,-5.83 -3.883,-11.65 -3.883,-15.54"
         style="fill:#2f8375;fill-opacity:1;fill-rule:evenodd;stroke:none"
         id="path156"
         inkscape:connector-curvature="0" /><path
         d="m 322.504,1131.63 87.402,7.77 c 1.942,5.83 3.883,11.65 3.883,15.54 l -87.402,-7.77 c -1.942,-5.83 -3.883,-11.65 -3.883,-15.54 z"
         style="fill:none;stroke:#2f8375;stroke-width:10.78979969;stroke-linecap:round;stroke-linejoin:round;stroke-miterlimit:2.61310005;stroke-dasharray:none;stroke-opacity:1"
         id="path158"
         inkscape:connector-curvature="0" /><path
         d="m 303.078,1003.44 85.461,29.13 c 0,5.83 0,9.72 1.945,15.54 l -87.406,-29.13 c 0,-5.83 0,-9.71 0,-15.54"
         style="fill:#2f8375;fill-opacity:1;fill-rule:evenodd;stroke:none"
         id="path160"
         inkscape:connector-curvature="0" /><path
         d="m 303.078,1003.44 85.461,29.13 c 0,5.83 0,9.72 1.945,15.54 l -87.406,-29.13 c 0,-5.83 0,-9.71 0,-15.54 z"
         style="fill:none;stroke:#2f8375;stroke-width:10.78979969;stroke-linecap:round;stroke-linejoin:round;stroke-miterlimit:2.61310005;stroke-dasharray:none;stroke-opacity:1"
         id="path162"
         inkscape:connector-curvature="0" /><path
         d="m 308.906,873.305 77.692,50.5 c 0,5.828 0,11.652 0,17.48 l -79.637,-52.441 c 0,-5.824 1.945,-11.653 1.945,-15.539"
         style="fill:#2f8375;fill-opacity:1;fill-rule:evenodd;stroke:none"
         id="path164"
         inkscape:connector-curvature="0" /><path
         d="m 308.906,873.305 77.692,50.5 c 0,5.828 0,11.652 0,17.48 l -79.637,-52.441 c 0,-5.824 1.945,-11.653 1.945,-15.539 z"
         style="fill:none;stroke:#2f8375;stroke-width:10.78979969;stroke-linecap:round;stroke-linejoin:round;stroke-miterlimit:2.61310005;stroke-dasharray:none;stroke-opacity:1"
         id="path166"
         inkscape:connector-curvature="0" /><path
         d="m 341.926,747.055 62.152,67.984 c 0,5.824 -1.941,11.652 -3.887,17.477 l -62.152,-69.922 c 0,-5.828 1.941,-11.653 3.887,-15.539"
         style="fill:#2f8375;fill-opacity:1;fill-rule:evenodd;stroke:none"
         id="path168"
         inkscape:connector-curvature="0" /><path
         d="m 341.926,747.055 62.152,67.984 c 0,5.824 -1.941,11.652 -3.887,17.477 l -62.152,-69.922 c 0,-5.828 1.941,-11.653 3.887,-15.539 z"
         style="fill:none;stroke:#2f8375;stroke-width:10.78979969;stroke-linecap:round;stroke-linejoin:round;stroke-miterlimit:2.61310005;stroke-dasharray:none;stroke-opacity:1"
         id="path170"
         inkscape:connector-curvature="0" /><path
         d="m 402.137,624.688 42.73,83.519 c -1.941,5.828 -3.887,11.652 -7.769,17.481 l -44.672,-85.461 c 1.941,-5.829 5.828,-9.711 9.711,-15.539"
         style="fill:#2f8375;fill-opacity:1;fill-rule:evenodd;stroke:none"
         id="path172"
         inkscape:connector-curvature="0" /><path
         d="m 402.137,624.688 42.73,83.519 c -1.941,5.828 -3.887,11.652 -7.769,17.481 l -44.672,-85.461 c 1.941,-5.829 5.828,-9.711 9.711,-15.539 z"
         style="fill:none;stroke:#2f8375;stroke-width:10.78979969;stroke-linecap:round;stroke-linejoin:round;stroke-miterlimit:2.61310005;stroke-dasharray:none;stroke-opacity:1"
         id="path174"
         inkscape:connector-curvature="0" /><path
         d="m 475.941,523.688 23.313,97.117 c -1.945,5.828 -7.77,11.652 -9.715,15.535 l -25.25,-99.055 c 3.887,-3.883 7.77,-9.711 11.652,-13.597"
         style="fill:#2f8375;fill-opacity:1;fill-rule:evenodd;stroke:none"
         id="path176"
         inkscape:connector-curvature="0" /><path
         d="m 475.941,523.688 23.313,97.117 c -1.945,5.828 -7.77,11.652 -9.715,15.535 l -25.25,-99.055 c 3.887,-3.883 7.77,-9.711 11.652,-13.597 z"
         style="fill:none;stroke:#2f8375;stroke-width:10.78979969;stroke-linecap:round;stroke-linejoin:round;stroke-miterlimit:2.61310005;stroke-dasharray:none;stroke-opacity:1"
         id="path178"
         inkscape:connector-curvature="0" /><path
         d="m 1198.48,1401.61 c 1.95,-3.88 3.89,-3.88 5.83,-5.82 1.94,1.94 3.89,1.94 5.83,1.94 1.94,1.94 3.88,1.94 5.82,3.88 -5.82,1.95 -9.71,5.83 -13.59,9.71 -1.94,-3.88 -1.94,-7.76 -3.89,-9.71"
         style="fill:#2f8375;fill-opacity:1;fill-rule:evenodd;stroke:none"
         id="path180"
         inkscape:connector-curvature="0" /><path
         d="m 1198.48,1401.61 c 1.95,-3.88 3.89,-3.88 5.83,-5.82 1.94,1.94 3.89,1.94 5.83,1.94 1.94,1.94 3.88,1.94 5.82,3.88 -5.82,1.95 -9.71,5.83 -13.59,9.71 -1.94,-3.88 -1.94,-7.76 -3.89,-9.71 z"
         style="fill:none;stroke:#2f8375;stroke-width:10.78979969;stroke-linecap:round;stroke-linejoin:round;stroke-miterlimit:2.61310005;stroke-dasharray:none;stroke-opacity:1"
         id="path182"
         inkscape:connector-curvature="0" /></g></g></svg>