<?xml version="1.0" encoding="utf-8"?>
<!-- Generator: Adobe Illustrator 16.0.3, SVG Export Plug-In . SVG Version: 6.00 Build 0)  -->
<!DOCTYPE svg PUBLIC "-//W3C//DTD SVG 1.0//EN" "http://www.w3.org/TR/2001/REC-SVG-20010904/DTD/svg10.dtd" [
	<!ENTITY ns_flows "http://ns.adobe.com/Flows/1.0/">
	<!ENTITY ns_extend "http://ns.adobe.com/Extensibility/1.0/">
	<!ENTITY ns_ai "http://ns.adobe.com/AdobeIllustrator/10.0/">
	<!ENTITY ns_graphs "http://ns.adobe.com/Graphs/1.0/">
]>
<svg version="1.0" id="Layer_1" xmlns:x="&ns_extend;" xmlns:i="&ns_ai;" xmlns:graph="&ns_graphs;"
	 xmlns="http://www.w3.org/2000/svg" xmlns:xlink="http://www.w3.org/1999/xlink" xmlns:a="http://ns.adobe.com/AdobeSVGViewerExtensions/3.0/"
	 x="0px" y="0px" width="595px" height="842px" viewBox="0 0 595 842" enable-background="new 0 0 595 842" xml:space="preserve">
<g>
	<defs>
		<polyline id="SVGID_1_" points="13.034,15.296 13.034,119.481 117.222,119.481 117.222,15.296 		"/>
	</defs>
	<clipPath id="SVGID_2_">
		<use xlink:href="#SVGID_1_"  overflow="visible"/>
	</clipPath>
	<path clip-path="url(#SVGID_2_)" fill="#00685C" d="M13.034,67.388c0,28.725,23.369,52.094,52.095,52.094
		c28.725,0,52.093-23.369,52.093-52.094c0-28.724-23.368-52.092-52.093-52.092C36.402,15.296,13.034,38.664,13.034,67.388
		 M14.492,67.388c0-27.921,22.713-50.637,50.636-50.637c27.92,0,50.636,22.716,50.636,50.637c0,27.922-22.716,50.639-50.636,50.639
		C37.206,118.026,14.492,95.31,14.492,67.388z"/>
	<path clip-path="url(#SVGID_2_)" fill="#00685C" d="M79.579,98.719c-1.266,4.385-1.867,6.646,0.106,11.165
		c0.02,0.172,0.21,0.73,0,0.806c-2.183-0.438-2.764-0.626-4.813-0.778c-1.895-0.327-5.041,0.201-7.147,0.182
		c-1.645,0.057-3.312,0.112-5.035,0.323c-0.516-0.267-0.115-0.842-0.075-1.225c0.19-0.595,0.208-0.899,0.268-1.589
		c0.268-0.286,0.594-0.135,0.918-0.269c1.11-0.171,2.049-1.147,2.317-2.184c0.345-1.088-0.037-2.295-0.535-3.33
		c-0.097-0.306-0.517-0.536-0.346-0.841c1.359-2.547,0.401-5.132-0.056-7.62c-0.479-1.764-1.207-3.714-1.496-5.573
		c0.059-0.19-0.19-0.632,0.23-0.669l0.155,0.037c1.453,1.764,5.618,5.492,7.179,6.703s5.59,3.562,8.212,4.192
		C79.711,98.258,79.673,98.433,79.579,98.719 M60.194,103.238c0-0.23,0.013-0.324,0.188-0.399h0.947
		c0.84,0.029,1.921,0.305,2.708-0.508c0.452,0.016,0.492,0.554,0.612,0.969c0.107,0.58,0.081,0.949,0.081,1.471
		c-0.188,0.413-0.398,1.042-0.827,1.304c-0.68,0.321-1.362,0.259-2.015,0C60.901,105.491,60.181,104.558,60.194,103.238z
		 M61.805,108.07c-0.121,1.142-1.555,2.148-2.256,2.352c-0.704,0.2-2.804,0.102-3.409-0.106c-0.602-0.209-2.076-3.088-1.905-4.584
		c0-1.233,0.332-3.191,0.827-3.35c0.495-0.155,1.806-0.075,1.806-0.075c0.549-0.037,0.963,0.094,1.445,0.149
		c0.342,0.132,0.102,0.563,0.222,0.807c0.155,0.637,0.19,1.326,0.586,1.963c0.551,1.068,1.565,1.704,2.563,2.079
		C61.91,107.511,61.786,107.789,61.805,108.07z M53.631,110.048c-0.391,0.401-0.61,0.214-1.006,0.251
		c-1.126-0.306-1.792-0.795-2.111-2.07c-0.412-1.779-0.398-3.736,0-5.552l0.182-0.143c0.792-0.091,1.991-0.251,2.317-0.072
		c0.324,0.18-0.351,3.38-0.351,3.38c-0.021,0.634,0.29,2.258,0.578,3.101C53.302,109.067,53.949,109.718,53.631,110.048z
		 M66.961,72.089l-0.04,1.092c-0.1,0.995-0.56,2.143-1.496,2.698c-0.559-0.133-0.358-0.805-0.498-1.262
		c0.359-0.995,1.057-1.819,1.635-2.7c0.078-0.059,0.158-0.096,0.237-0.059L66.961,72.089z M75.084,63.278
		c-0.58,0.267-1.178,0.325-1.819,0.029c-0.163-0.223-0.693-0.402-0.484-0.729c0.466-0.754,1.255-1.378,1.739-2.119l0.225-0.12
		c0.982-1.186,2.529-2.178,3.995-3.069l0.886-0.386c0.192-0.191,0.645-0.593,0.821-0.179c0.032,1.544-0.621,3.195-2.093,4.287
		c-0.894,0.66-1.275,0.532-2.073,0.58l-0.409,0.741C75.774,62.684,75.453,63.056,75.084,63.278z M71.9,77.844
		c-0.268,0.155-2.582-0.728-2.313-0.481c-0.548-0.594,0.349-0.795-1.693-1.561l-0.495,0.052c-0.063,0.059-0.243,0.149-0.428-0.104
		c-0.019-0.308,0.386-0.263,0.514-0.646c0.73-1.646,0.329-2.919,0.257-4.623l0.541-1.396C69.308,67.848,69.305,67.671,70,67
		c0.696-0.978,0.841-1.053,1.771-1.854c0.153-0.131,0.434-0.235,0.616-0.081c0.438,0.343,0.463,0.567,0.591,1.007
		c0.219,1.629-0.766,2.745-1.953,3.625c-0.844,0.728-1.646,1.857-1.464,2.968l0.072,0.075c0.386-0.325,0.87-0.515,1.033-0.916
		c0.642-1.434,2.37-2.087,3.339-3.33c0.42-0.747,0.163-2.042,0-2.904c-0.006,0.024,1.269-0.602,0.923-0.377
		c0.604,0.249,0.53,0.683,0.821,1.235c0.567,1.438,0.52,2.735-0.358,3.979l-2.413,3.01C72.941,74.971,73.363,76.944,71.9,77.844z
		 M82.121,54.935l0.166-0.211c0.749-0.355,1.447-0.631,2.279-0.872l0.998-0.26c0.265-0.24,0.73-0.436,0.998-0.096
		c0.017,1.292-0.95,2.843-2.379,3.44c-0.449,0.195-1.049,0.26-1.581,0.391c-0.134-0.115-0.567,0.129-0.698-0.195
		C81.987,56.484,82.236,55.516,82.121,54.935z M91.742,52.519c-0.051,0.929-1.289,1.696-2.325,1.983
		c-0.441,0.069-0.848,0.043-1.238,0.043c-0.102-0.072-0.22-0.158-0.203-0.258c0.066-0.441,0.137-0.698,0.169-1.097l0.256-0.188
		c0.915-0.184,2.033-0.382,2.951-0.626C91.488,52.406,91.656,52.394,91.742,52.519z M62.212,71.083
		c2.681-4.807,5.938-8.979,9.421-13.269l4.883-5.55c3.483-3.716,7.331-7.526,11.602-10.472c0.535-0.309,0.771-0.938,1.324-0.495
		l0.503,0.462c0.337,0.384,0.043,1.47-0.303,1.774c-0.274,0.225-0.542,0.446-0.808,0.666c0.833,0.824,2.033,2.393,3.021,3.406
		c0.434,0.447,0.3,0.91,1.076,1.271c0.388,0.182,0.498,0.604,0.268,0.968c-0.688,0.881-1.836,0.747-2.737,0.977
		c-3.35,0.747-6.058,1.704-9.764,3.503c-2.967,1.57-5.34,3.313-7.486,6.012c-0.821,1.015-1.742,1.781-2.43,3.005
		c-1.952,2.51-3.504,4.864-5.057,7.449c-0.554,0.813-0.735,1.217-1.512,1.953c-0.377,0.358-0.714-0.391-0.95-0.65
		c-0.027-0.029-0.043-0.062-0.062-0.091c-0.081,0.011-0.163-0.006-0.243-0.06C62.75,71.677,62.097,71.562,62.212,71.083z
		 M93.278,53.153c-0.107,0.112-0.241,0.251-0.42,0.203c-0.407-0.284-0.252-0.645-0.228-0.988c0.083-0.082,0.096-0.13,0.228-0.13
		c0.192-0.032,0.3,0.109,0.371,0.211C93.351,52.672,93.364,52.923,93.278,53.153z M48.288,108.223
		c-0.785,0.019-1.335-0.409-1.699-1.335c-0.367-1.178-0.49-2.218-0.236-3.43c0.081-0.153,0.254-0.252,0.367-0.201l1.095-0.372
		c0.367-0.149,0.666-0.201,1.017-0.118l0.222,0.22c-0.017,0.64-0.174,1.11-0.19,1.701c-0.064,1.483-0.19,1.925,0.238,3.337
		C48.943,108.396,48.627,108.217,48.288,108.223z M45.021,104.086c-0.171,0.308-0.147,0.514-0.225,0.884
		c-0.093,0.168-0.572-0.06-0.725-0.153c-0.594-0.321-0.554-0.158-0.726-0.709c-0.096-0.369-0.085-0.803,0.527-1.124
		c0.382-0.217,1.148-0.476,1.396,0C45.347,103.305,44.965,103.72,45.021,104.086z M99.754,72.52
		c-1.379-3.179-2.928-5.916-4.06-9.113c-0.803-1.148-0.343-2.373-0.438-3.599c-0.517-1.916-1.322-3.391-2.088-5.247
		c-0.211-0.535,0.383-0.69,0.595-1.07c0.345-0.939,0.096-1.993-0.327-2.893c-0.17-0.517,0.442-0.88,0.327-1.415
		c-0.021-0.824-0.746-1.381-1.321-1.819c-0.862-1.245-1.263-1.897-2.337-3.026v-0.211c0.536-0.477,0.978-1.301,0.958-2.01
		c-0.211-0.803-0.382-1.549-1.15-2.106c-1.223-0.689-2.467,0.384-3.443,0.939c-0.27,0.19-0.404,0.383-0.787,0.346
		c-0.247-0.089-0.504-0.181-0.765-0.274c-0.25,0.285-0.56,0.588-0.941,0.889l1.19,0.482c0.043,0.032,0.059,0.056,0.059,0.097
		c0,0.021-0.008,0.059-0.013,0.091c-0.083,0.072-2.754,2.413-2.754,2.413c-0.008,0.005-4.813,4.755-4.813,4.755
		c0,0.003-1.379,1.399-1.379,1.399c-0.008,0.008-4.278,4.929-4.278,4.929c-2.233,2.59-5.533,6.842-7.519,9.953
		c-1.033,1.424-2.063,3.005-3.023,4.5c-0.104,0.166-0.3,0.152-0.61,0.115c-0.211-0.023-0.428-0.046-0.624,0.021
		c0.005,0,0.008,0,0.008,0l-0.043,0.012c0.011-0.003,0.024-0.006,0.035-0.012c-1.086,0.121-1.875,0.482-2.721,1.248
		c-1.097,1.292-1.648,2.857-1.648,4.546c0,1.16,0.265,2.384,0.797,3.612c-0.225,0.658-0.741,1.238-1.204,1.752l-0.257,0.289
		l-0.329,0.323c-0.214,0.204-0.458,0.434-0.634,0.658l-0.016,0.021l-0.011,0.027c-0.021,0.071-0.032,0.208,0.18,0.311l0.05,0.026
		l0.057-0.014c1.012-0.24,1.648-1.001,2.266-1.736c0,0,0.388-0.446,0.444-0.514c0.091-0.016,0.166,0.035,0.3,0.147
		c0.069,0.059,0.149,0.115,0.241,0.158c0,0.021,0,0.05,0,0.05s-0.014,0.327-0.016,0.401c-2.395,2.365-4.345,3.701-6.895,5.199
		l-0.426,0.249l0.492,0.051c0.996,0.099,1.94-0.46,2.853-1.001l1.097-0.604c1.014-0.52,1.953-1.312,2.865-2.077
		c0,0,0.824-0.685,0.913-0.756c0.085,0.013,0.182,0.122,0.257,0.211c0,0,0.054,0.059,0.088,0.096
		c0.016,0.029,0.765,1.512,0.811,1.601c-0.171,0.704-0.246,1.407-0.246,2.11c0,1.533,0.332,3.059,0.658,4.552
		c0.321,1.472,0.653,2.991,0.653,4.484c0,0.099-0.002,0.195-0.005,0.294c0,0.461-0.506,1.073-0.926,1.266
		c-0.958,0.163-2.114,0.175-3.339,0.186c-1.5,0.013-3.055,0.026-4.249,0.35c-0.385,0.046-0.83,0.172-1.26,0.292
		c-0.423,0.118-0.859,0.24-1.266,0.297l-0.04,0.005L49.7,98.81l-0.147,0.103c-0.136,0.085-0.305,0.188-0.345,0.39
		c-0.002,0.016-0.005,0.035-0.005,0.054c0,0.115,0.053,0.24,0.139,0.329c0.083,0.086,0.188,0.125,0.294,0.115
		c0.361,0,0.765-0.146,1.159-0.289c0.273-0.099,0.559-0.203,0.821-0.248c2.494-0.426,5.228-0.341,7.08-0.191
		c0.915-0.016,2.416-0.045,2.957-1.343c0.195-0.526,0.262-1.017,0.262-1.487c0-0.52-0.08-1.02-0.163-1.533l-0.163-1.263
		c-0.11-0.771-0.273-1.538-0.431-2.283c-0.28-1.321-0.57-2.68-0.57-4.056c0-0.278,0.016-0.559,0.04-0.84
		c0.027-0.035,0.056-0.078,0.091-0.083c0.081-0.011,0.222,0.102,0.334,0.19c0.128,0.101,0.259,0.197,0.404,0.234
		c0.166,0.126,0.354,0.161,0.524,0.183c0.238,0.032,0.367,0.062,0.442,0.246c0.107,1.209,0.524,2.459,0.928,3.668
		c0.278,0.832,0.567,1.694,0.752,2.534c0.329,1.471,0.661,2.965,0.661,4.436c0,0.875-0.118,1.745-0.425,2.598
		c-0.64,1.165-2.039,1.17-3.39,1.176h-0.404l-3.313-0.201c-2.842-0.206-5.779-0.417-8.792,0.069
		c0.021-0.003-0.674,0.073-0.674,0.073c-0.372,0.056-0.723,0.102-1.1,0.013c-0.139-0.112-0.252-0.308-0.252-0.511
		c0-0.064,0.011-0.131,0.038-0.196c0.538-1.188,0.809-2.261,0.809-3.21c0-0.771-0.177-1.459-0.53-2.063
		c-0.779-1.494-1.635-2.529-2.691-3.252c-1.293-1.294-2.399-2.441-3.382-3.559c-0.575-0.072-0.928-0.186-0.966-0.198l-0.128-0.044
		l-0.575,0.709c0.747,0.708,1.437,1.417,2.279,2.183c1.282,0.69,2.317,1.935,3.235,2.777c1.11,1.3,1.377,2.679,1.147,4.211
		c-0.152,1.817-1.817,2.604-2.948,3.811c-0.458,0.862-0.747,1.895-0.115,2.7c0.404,1.07,2.125,0.877,2.336,1.76
		c0.474,1.945,3.848,3.069,4.506,3.115c0.655,0.045,1.335,0.77,1.335,0.77c1.34,0.978,3.101,0.741,4.027,0.6
		c0.923-0.139,2.577,0.607,3.612,0.455c1.549-0.613,2.815-0.326,4.423-0.46c5.055,0.078,10.797-0.038,15.966,0.612
		c0.958-0.115,2.105,0.632,3.007,0.175c0.23-0.386,0.057-0.709,0-1.036c-2.469-3.885-2.839-8.246-1.438-12.479l0.933,0.055
		c3.353,0.364,6.401-0.069,9.808-2.042c1.705-0.938,2.601-3.134,2.522-4.723c-0.057-1.033-0.414-2.253-0.241-3.345
		c0.06-0.487,0.383-1.228,0.802-1.46c0.18-0.1,0.808-0.525,1.004-1.07c0.324-0.887-0.37-1.305-0.57-1.425
		c0.54-0.221,1.064-1.327,0.566-2.188c-0.319-0.34-0.691-1.686-0.731-2.127c-0.114-0.631-0.134-1.281,0.46-1.686
		c1.341-0.706,2.604-0.88,4-1.492c0.959-0.402,1.456-1.396,1.419-2.296L99.754,72.52z M99.354,75.86
		c-1.418,1.319-3.427,1.342-5.055,2.411c-0.746,0.747-0.558,1.595-0.252,2.534c0.602,1.19,0.373,1.067-0.467,1.348
		c-1.964,0.654-1.942,2.803-4.304,2.442c-0.134,0.04-0.687-0.236-0.36,0.159c0.254,0.303,0.36,0.12,0.86,0.181
		c0.842,0.04,1.154-0.307,1.746-0.708c0.843-0.709,0.742-0.976,1.777-1.474c0.249-0.059,0.86-0.24,1.2-0.12
		c0.231,0.212,0.237,0.217,0.274,0.407c-0.134,0.575-0.975,1.054-1.295,1.254c0.441,0.323,1.269,0.87,1.135,1.328
		c-0.189,0.301-0.18,0.352-0.514,0.514c-0.468,0.227-1.401,0.192-2.282-0.46c-0.134,0.04-0.28-0.261-0.657,0.098
		c0.857,0.883,2.059,0.682,2.238,0.862c0.181,0.18-0.642,1.246-0.679,1.476c-0.575,1.531,0.132,2.94-0.177,4.53
		c-0.189,1.244-0.562,1.836-1.65,2.619c-1.998,1.384-3.398,1.784-5.64,2.144c-5.879,0.402-9.588-1.615-13.82-4.776
		c-4.233-3.161-5.852-4.843-7.173-6.622c-0.019-0.728,0.516-1.281,0.059-2.068c-0.382,0.134-0.345,0.632-0.575,0.92
		c-0.326,0.461-1.11,0.804-1.667,0.747c-1.741-0.594-1.838-2.642-2.927-3.81c-2.336-2.299-2.989-5.611-1.742-8.386
		c0.439-0.861,1.223-1.686,2.106-1.99c1.089-0.174,2.374-0.174,3.083,0.88c0.84,0.803,1.359,2.105,1.568,3.254
		c0.345,0.557-0.075,1.188,0.498,1.648c0.996,0.093,1.857,0.342,2.814-0.269c0.71,0.094,0.807,0.881,1.341,1.224l0.958,0.575
		c1.014,0.419,2.317,0.419,3.179-0.327c1.608-1.646,1.258-3.339,1.812-5.155c1.533-1.359,2.553-3.305,2.534-5.202
		c-0.097-1.166-0.517-2.373-1.207-3.539c0.115-0.69,0.497-1.207,0.728-1.82c0.192-0.114,0.442-0.114,0.65-0.152
		c1.704-0.363,3.256-1.915,3.926-3.543l0.152-0.151c1.952-0.134,4.385-0.824,5.514-2.874c0.23-0.88,1.226-0.23,1.838-0.438
		c1.033-0.059,2.068-0.632,2.854-1.303c0.229-0.078,0.4,0.174,0.537,0.286c0.457,1.533,1.301,3.007,1.779,4.559
		c0.594,1.167,0.806,2.277,0.594,3.465c0.249,1.817,1.282,3.521,2.01,5.359c0.729,1.935,1.856,3.888,2.681,5.879
		C99.508,74.577,99.852,75.211,99.354,75.86z"/>
	<path clip-path="url(#SVGID_2_)" fill="#00685C" d="M90.643,60.602c0.268,0.346,0.441,0.65,0.23,0.978
		c-0.498,0.037-0.575-0.595-0.996-0.807c-0.689-0.342-1.302,0.022-1.99,0.193c-1.741,0.747-3.197,2.24-4.883,3.023
		c-0.208,0-0.401-0.019-0.535-0.171c0.286-0.286,0.746-0.346,1.11-0.575c1.742-1.148,3.428-2.946,5.608-3.272
		C89.763,59.934,90.279,60.142,90.643,60.602"/>
	<path clip-path="url(#SVGID_2_)" fill="#00685C" d="M88.971,66.951c-0.271,0.399-0.698,0.051-1.075,0.099
		c-0.862-0.099-2.317,0.102-3.268-0.016c-0.145-0.083-0.251-0.232-0.163-0.366c0.145-0.235,0.54-0.252,0.792-0.437
		c1.04-0.65,2.135-1.269,3.32-1.552c0.215-0.032,0.394,0.15,0.431,0.3C89.15,65.53,89.062,66.416,88.971,66.951 M90.509,63.551
		c-0.134-0.423-0.114-1.11-0.632-1.207c-0.114,0.268,0,0.557-0.114,0.806c-0.153,0.189-0.421,0.42-0.729,0.343
		c-2.105,0.134-3.676,1.993-5.474,2.948c-0.613,0.345-1.303,0.537-1.953,0.709c-0.059,0.097-0.037,0.23,0.056,0.286
		c1.993,0.212,3.963,0.403,5.938,0.612L89.8,67.8c0.059-0.287-0.286-0.535-0.229-0.862c0.251-0.898,0.326-1.875,0.077-2.718
		C89.821,63.762,90.472,64.104,90.509,63.551z"/>
	<path clip-path="url(#SVGID_2_)" fill="#00685C" d="M91.622,73.42c0.07-0.1,0.15-0.214,0.245-0.223
		c0.125,0.046,0.191,0.104,0.208,0.336c-0.016,0.369-0.109,0.758-0.209,1.169c-0.114,0.469-0.23,0.947-0.23,1.416
		c0,0.209,0.022,0.415,0.079,0.617c0.277,0.345,0.704,0.423,1.217,0.247c0.01-0.004,0.872-0.499,0.872-0.499
		c0.75-0.449,1.459-0.872,2.771-1.207c0.032-0.008,0.04,0.003,0.045,0.009c0.021,0.023,0.03,0.072,0.03,0.135
		c0,0.112-0.033,0.266-0.088,0.391c-0.05,0.022-1.264,0.564-1.264,0.564c-0.956,0.417-1.944,0.85-2.87,1.38
		c-0.274,0.057-0.527-0.092-0.771-0.234l-0.061-0.035c-0.352-0.482-0.466-0.949-0.466-1.416c0-0.419,0.092-0.839,0.187-1.269
		c0.087-0.4,0.176-0.814,0.196-1.249C91.544,73.515,91.622,73.42,91.622,73.42"/>
	<path clip-path="url(#SVGID_2_)" fill="#00685C" d="M61.792,73.028c0.69,1.415-0.038,2.755,0,4.229
		c0.115,0.42,0.939,0.479,0.69,0.977c-0.193,0.134-0.46,0.171-0.671,0.019c-0.383-0.249-0.517-0.438-0.613-0.881
		c-0.096-1.3,0.939-2.814,0.019-4.039c-0.268-0.268-0.65-0.535-1.033-0.554c-0.824,0.151-1.244,1.032-1.53,1.683
		c-0.441,1.723-0.557,3.542,0.955,4.92c0.883,0.517,1.953,1.073,2.012,2.184c0.134,0.192,0.401,0.383,0.613,0.268
		c0.268-0.019,0.305-0.784,0.688-0.421l0.115,0.269c-0.096,0.305-0.19,0.843-0.688,0.861c-0.249,0.057-0.519-0.078-0.728-0.229
		c-0.538-0.555-0.115-1.397-1.017-1.761c-1.493-0.461-2.469-2.031-2.622-3.506c-0.096-1.415-0.038-2.967,1.188-4.211
		c0.479-0.364,1.111-0.594,1.723-0.401C61.238,72.489,61.639,72.739,61.792,73.028"/>
	<path clip-path="url(#SVGID_2_)" fill-rule="evenodd" clip-rule="evenodd" fill="#00685C" d="M43.345,83.967
		c1.991-0.923,4.265-0.816,5.121-0.733c-0.244,0.79-1.07,2.84-3.334,3.95c-2.271,1.112-4.217,0.848-4.928,0.692
		C40.466,87.089,41.346,84.896,43.345,83.967 M43.075,83.382c-2.726,1.265-3.558,4.511-3.593,4.649l-0.072,0.286l0.281,0.097
		c0.107,0.035,2.638,0.864,5.726-0.652c3.115-1.528,3.754-4.611,3.781-4.741l0.064-0.327l-0.329-0.053
		C48.803,82.618,45.75,82.14,43.075,83.382z"/>
	<path clip-path="url(#SVGID_2_)" fill-rule="evenodd" clip-rule="evenodd" fill="#00685C" d="M46.057,77.85
		c1.983-0.896,4.147-0.78,4.977-0.692c-0.255,0.77-1.1,2.734-3.361,3.814c-2.253,1.076-4.185,0.873-4.923,0.734
		C43.063,80.903,44.061,78.751,46.057,77.85 M45.792,77.262c-2.731,1.233-3.74,4.449-3.78,4.585l-0.094,0.308l0.305,0.095
		c0.107,0.034,2.63,0.786,5.729-0.696c3.127-1.495,3.791-4.474,3.818-4.599l0.067-0.327l-0.326-0.059
		C51.387,76.547,48.479,76.049,45.792,77.262z"/>
	<path clip-path="url(#SVGID_2_)" fill-rule="evenodd" clip-rule="evenodd" fill="#00685C" d="M49.599,71.96
		c1.975-0.87,4.029-0.747,4.835-0.653c-0.268,0.752-1.132,2.628-3.39,3.679c-2.229,1.035-4.145,0.894-4.915,0.773
		C46.499,74.942,47.606,72.835,49.599,71.96 M49.339,71.368c-2.734,1.201-3.919,4.386-3.968,4.521l-0.12,0.327l0.334,0.093
		c0.107,0.029,2.625,0.707,5.729-0.741c3.141-1.46,3.829-4.334,3.858-4.457l0.072-0.324l-0.326-0.063
		C54.803,70.699,52.04,70.181,49.339,71.368z"/>
	<path clip-path="url(#SVGID_2_)" fill-rule="evenodd" clip-rule="evenodd" fill="#00685C" d="M53.117,66.141
		c1.969-0.84,3.915-0.712,4.69-0.615c-0.278,0.733-1.161,2.525-3.417,3.547c-2.205,0.999-4.107,0.913-4.904,0.812
		C49.912,69.052,51.132,66.989,53.117,66.141 M52.863,65.547c-2.737,1.172-4.096,4.326-4.152,4.457l-0.147,0.348l0.366,0.092
		c0.104,0.026,2.614,0.629,5.729-0.784c3.152-1.429,3.864-4.198,3.894-4.315l0.08-0.324l-0.327-0.069
		C58.196,64.926,55.579,64.388,52.863,65.547z"/>
	<path clip-path="url(#SVGID_2_)" fill-rule="evenodd" clip-rule="evenodd" fill="#00685C" d="M57.987,60.318
		c1.958-0.813,3.799-0.68,4.548-0.575c-0.292,0.712-1.193,2.419-3.443,3.411c-2.197,0.969-4.078,0.929-4.894,0.849
		C54.688,63.157,56.01,61.14,57.987,60.318 M57.741,59.722c-2.745,1.14-4.275,4.266-4.34,4.396l-0.179,0.369l0.398,0.085
		c0.107,0.024,2.609,0.549,5.731-0.826c3.165-1.396,3.901-4.062,3.93-4.174l0.086-0.321l-0.324-0.078
		C62.942,59.149,60.467,58.59,57.741,59.722z"/>
	<path clip-path="url(#SVGID_2_)" fill-rule="evenodd" clip-rule="evenodd" fill="#00685C" d="M63.357,54.699
		c1.946-0.783,3.681-0.647,4.404-0.537c-0.305,0.692-1.226,2.319-3.473,3.28c-2.176,0.934-4.038,0.941-4.875,0.883
		C59.961,57.466,61.388,55.494,63.357,54.699 M63.116,54.103c-2.748,1.107-4.455,4.203-4.527,4.335l-0.208,0.388l0.434,0.083
		c0.104,0.019,2.601,0.471,5.728-0.872c3.182-1.364,3.941-3.925,3.971-4.032l0.092-0.319l-0.319-0.082
		C68.187,53.578,65.855,52.997,63.116,54.103z"/>
	<path clip-path="url(#SVGID_2_)" fill-rule="evenodd" clip-rule="evenodd" fill="#00685C" d="M69.091,49.391
		c1.929-0.754,3.566-0.614,4.26-0.503c-0.319,0.672-1.258,2.218-3.5,3.152c-2.143,0.894-3.992,0.953-4.856,0.915
		C65.609,52.083,67.138,50.156,69.091,49.391 M68.854,48.789c-2.753,1.078-4.631,4.145-4.708,4.276l-0.249,0.409l0.474,0.074
		c0.104,0.017,2.593,0.394,5.729-0.915c3.192-1.33,3.976-3.783,4.008-3.887l0.097-0.316l-0.316-0.088
		C73.797,48.315,71.611,47.711,68.854,48.789z"/>
	<path clip-path="url(#SVGID_2_)" fill-rule="evenodd" clip-rule="evenodd" fill="#00685C" d="M75.058,44.489
		c1.91-0.725,3.448-0.583,4.112-0.465c-0.332,0.649-1.293,2.116-3.523,3.021c-2.127,0.858-3.953,0.96-4.836,0.944
		C71.491,47.109,73.109,45.229,75.058,44.489 M74.827,43.888c-2.761,1.049-4.811,4.085-4.896,4.214l-0.289,0.434l0.517,0.066
		c0.104,0.013,2.585,0.313,5.729-0.96c3.205-1.298,4.014-3.645,4.046-3.746l0.101-0.308l-0.31-0.099
		C79.638,43.462,77.597,42.835,74.827,43.888z"/>
	<path clip-path="url(#SVGID_2_)" fill-rule="evenodd" clip-rule="evenodd" fill="#00685C" d="M81.115,40.099
		c1.891-0.695,3.336-0.554,3.971-0.431c-0.349,0.626-1.324,2.018-3.553,2.892c-2.099,0.825-3.899,0.967-4.804,0.975
		C77.473,42.646,79.181,40.813,81.115,40.099 M80.893,39.493c-2.767,1.021-4.987,4.03-5.081,4.158l-0.331,0.455l0.559,0.057
		c0.104,0.011,2.58,0.235,5.731-1.003c3.217-1.263,4.048-3.506,4.083-3.602l0.107-0.306l-0.306-0.106
		C85.578,39.117,83.678,38.469,80.893,39.493z"/>
	<path clip-path="url(#SVGID_2_)" fill-rule="evenodd" clip-rule="evenodd" fill="#00685C" d="M37.181,83.077
		c0-0.099,0.003-0.195,0.008-0.294c0.145-2.216,1.343-4.169,1.825-4.872c0.559,0.574,1.889,2.19,1.889,4.572
		c0,0.091-0.003,0.185-0.008,0.278c-0.11,2.539-1.282,4.131-1.763,4.683C38.586,86.86,37.181,85.158,37.181,83.077 M38.715,77.218
		c-0.081,0.104-1.975,2.563-2.17,5.522c-0.195,3.013,2.269,5.313,2.376,5.409l0.216,0.201l0.22-0.201
		c0.083-0.074,2.034-1.904,2.184-5.361c0.152-3.48-2.264-5.533-2.366-5.618l-0.256-0.215L38.715,77.218z"/>
	<path clip-path="url(#SVGID_2_)" fill-rule="evenodd" clip-rule="evenodd" fill="#00685C" d="M40.7,76.514
		c0-0.189,0.011-0.385,0.035-0.58c0.04-0.338,0.102-0.661,0.185-0.963c0.471-1.751,1.448-3.117,1.887-3.672
		c0.462,0.552,1.471,1.983,1.471,4.024c0,0.241-0.016,0.489-0.045,0.747c-0.294,2.445-1.512,3.962-2.022,4.505
		C41.754,79.974,40.7,78.387,40.7,76.514 M42.559,70.587c-0.064,0.073-1.605,1.771-2.263,4.215
		c-0.088,0.331-0.158,0.688-0.201,1.054c-0.355,2.922,1.755,5.316,1.847,5.418l0.208,0.233l0.241-0.203
		c0.083-0.072,2.076-1.801,2.48-5.156c0.407-3.393-1.76-5.487-1.852-5.576l-0.238-0.225L42.559,70.587z"/>
	<path clip-path="url(#SVGID_2_)" fill-rule="evenodd" clip-rule="evenodd" fill="#00685C" d="M44.66,70.427
		c0-0.302,0.024-0.615,0.083-0.929c0.061-0.345,0.136-0.647,0.23-0.926c0.583-1.723,1.619-2.97,2.087-3.476
		c0.369,0.521,1.095,1.764,1.095,3.471c0,0.386-0.038,0.795-0.126,1.226c-0.471,2.347-1.731,3.788-2.277,4.323
		C45.393,73.509,44.66,72.075,44.66,70.427 M46.87,64.369c-0.069,0.064-1.686,1.571-2.507,3.997
		c-0.104,0.309-0.189,0.643-0.256,1.02c-0.514,2.826,1.244,5.312,1.319,5.419l0.195,0.272l0.265-0.209
		c0.085-0.066,2.122-1.693,2.777-4.95c0.664-3.299-1.255-5.438-1.338-5.527l-0.217-0.24L46.87,64.369z"/>
	<path clip-path="url(#SVGID_2_)" fill-rule="evenodd" clip-rule="evenodd" fill="#00685C" d="M49.016,64.838
		c0-0.444,0.045-0.907,0.158-1.367c0.083-0.346,0.174-0.638,0.278-0.892c0.696-1.69,1.785-2.819,2.282-3.277
		c0.276,0.471,0.768,1.504,0.768,2.9c0,0.524-0.069,1.103-0.247,1.715c-0.645,2.245-1.942,3.615-2.525,4.145
		C49.473,67.479,49.016,66.247,49.016,64.838 M51.608,58.558c-0.072,0.057-1.763,1.37-2.753,3.777
		c-0.118,0.284-0.217,0.605-0.311,0.983c-0.664,2.731,0.731,5.306,0.79,5.415l0.176,0.318l0.295-0.214
		c0.088-0.062,2.165-1.587,3.071-4.741c0.92-3.203-0.747-5.389-0.819-5.479l-0.195-0.253L51.608,58.558z"/>
	<path clip-path="url(#SVGID_2_)" fill-rule="evenodd" clip-rule="evenodd" fill="#00685C" d="M53.711,59.808
		c0-0.629,0.075-1.304,0.281-1.967c0.107-0.343,0.211-0.615,0.326-0.854c0.816-1.667,1.959-2.684,2.48-3.091
		c0.198,0.409,0.5,1.215,0.5,2.304c0,0.659-0.11,1.416-0.426,2.242c-0.808,2.139-2.146,3.441-2.771,3.963
		C53.947,61.884,53.711,60.923,53.711,59.808 M56.74,53.147c-0.075,0.046-1.833,1.167-3,3.557c-0.131,0.27-0.249,0.569-0.364,0.943
		c-0.819,2.639,0.217,5.299,0.262,5.411l0.147,0.366l0.332-0.217c0.088-0.062,2.205-1.484,3.36-4.535
		c1.177-3.106-0.235-5.335-0.297-5.429l-0.174-0.265L56.74,53.147z"/>
	<path clip-path="url(#SVGID_2_)" fill-rule="evenodd" clip-rule="evenodd" fill="#00685C" d="M58.696,55.411
		c0-0.854,0.11-1.856,0.474-2.81c0.128-0.329,0.246-0.588,0.377-0.815c0.931-1.638,2.122-2.543,2.673-2.898
		c0.121,0.338,0.287,0.921,0.287,1.724c0,0.766-0.153,1.707-0.65,2.75c-0.974,2.047-2.354,3.271-3.016,3.778
		C58.773,56.743,58.696,56.134,58.696,55.411 M62.233,48.131c-0.078,0.037-1.899,0.966-3.248,3.337
		c-0.145,0.254-0.278,0.542-0.417,0.904c-0.974,2.542-0.289,5.284-0.259,5.399l0.107,0.42l0.372-0.225
		c0.091-0.054,2.247-1.378,3.649-4.327c1.432-3.007,0.275-5.276,0.225-5.369l-0.147-0.281L62.233,48.131z"/>
	<path clip-path="url(#SVGID_2_)" fill-rule="evenodd" clip-rule="evenodd" fill="#00685C" d="M63.908,51.76
		c0-1.01,0.123-2.599,0.773-4.009c0.145-0.311,0.284-0.564,0.426-0.781c1.054-1.608,2.292-2.405,2.865-2.71
		c0.062,0.257,0.126,0.639,0.126,1.145c0,0.849-0.189,1.996-0.926,3.265c-1.131,1.953-2.549,3.101-3.253,3.593
		C63.914,52.114,63.908,51.952,63.908,51.76 M68.063,43.502c-0.08,0.032-1.959,0.771-3.497,3.112
		c-0.161,0.246-0.313,0.529-0.471,0.866c-1.126,2.446-0.794,5.271-0.779,5.389l0.057,0.472l0.417-0.228
		c0.094-0.051,2.288-1.274,3.941-4.121c1.683-2.905,0.784-5.212,0.747-5.309l-0.121-0.294L68.063,43.502z"/>
	<path clip-path="url(#SVGID_2_)" fill-rule="evenodd" clip-rule="evenodd" fill="#00685C" d="M70.504,43.28
		c0.154-0.287,0.31-0.53,0.473-0.749c1.178-1.576,2.467-2.27,3.062-2.523c0.019,0.15,0.034,0.331,0.034,0.564
		c0,0.864-0.211,2.25-1.271,3.783c-1.287,1.86-2.745,2.938-3.489,3.412C69.383,46.822,69.623,44.885,70.504,43.28 M74.204,39.256
		c-0.081,0.024-2.016,0.575-3.743,2.89c-0.182,0.241-0.354,0.514-0.524,0.824c-1.284,2.35-1.298,5.257-1.298,5.381l0.003,0.517
		l0.463-0.228c0.096-0.049,2.33-1.172,4.228-3.917c1.937-2.802,1.297-5.146,1.268-5.242l-0.088-0.308L74.204,39.256z"/>
	<path clip-path="url(#SVGID_2_)" fill-rule="evenodd" clip-rule="evenodd" fill="#00685C" d="M77.102,38.467
		c1.306-1.544,2.644-2.136,3.259-2.342c0.003,0.017,0.003,0.024,0.003,0.043c0,0.744-0.192,2.421-1.676,4.252
		c-1.434,1.771-2.939,2.78-3.721,3.231C75.175,42.504,75.761,40.048,77.102,38.467 M80.601,35.39
		c-0.083,0.014-2.065,0.383-3.991,2.659c-1.916,2.261-2.365,5.999-2.384,6.157l-0.064,0.56l0.514-0.229
		c0.097-0.042,2.373-1.067,4.517-3.713c2.184-2.697,1.801-5.073,1.784-5.173l-0.056-0.317L80.601,35.39z"/>
	<path clip-path="url(#SVGID_2_)" fill-rule="evenodd" clip-rule="evenodd" fill="#00685C" d="M20.798,67.388
		c0-24.442,19.885-44.33,44.33-44.33c7.232,0,14.371,1.793,20.717,5.153c-0.929,1.06-4.6,5.247-5.164,5.889
		c-4.881-2.284-10.108-3.454-15.553-3.454c-20.26,0-36.745,16.482-36.745,36.742c0,9.038,3.066,17.283,8.843,23.903
		c-0.332,0.768-0.923,2.451-0.923,4.68c0,1.844,0.428,4.056,1.726,6.408C27.303,93.833,20.798,80.841,20.798,67.388 M19.343,67.388
		c0,15.602,8.444,30.611,22.039,39.176l0.562,0.354l0.404-0.527c0.115-0.15,0.161-0.291,0.161-0.423
		c0-0.334-0.287-0.597-0.447-0.746l-0.787-0.755c-2.801-3.182-3.553-6.199-3.553-8.52c0-2.565,0.917-4.277,0.993-4.409l0.251-0.452
		l-0.345-0.388c-5.745-6.408-8.778-14.468-8.778-23.31c0-19.457,15.829-35.286,35.286-35.286c5.41,0,10.6,1.19,15.427,3.54
		l0.5,0.243l7.094-8.092l-0.787-0.438c-6.762-3.765-14.45-5.753-22.234-5.753C39.881,21.602,19.343,42.144,19.343,67.388z"/>
	<path clip-path="url(#SVGID_2_)" fill-rule="evenodd" clip-rule="evenodd" fill="#00685C" d="M81.189,34.333
		c-5.026-2.448-10.43-3.688-16.061-3.688c-20.26,0-36.745,16.482-36.745,36.742c0,9.207,3.166,17.603,9.153,24.281l0.629,0.701
		l2.793-4.223l-0.149-0.173c-0.25-0.029-0.457-0.065-0.606-0.099c0.039-0.115,0.093-0.266,0.16-0.435
		c-0.22-0.262-0.44-0.523-0.649-0.791c-0.226,0.359-0.437,0.625-0.583,0.794c-0.546-0.584-1.951-2.286-1.951-4.367
		c0-0.067,0.003-0.133,0.006-0.199c-2.614-4.602-3.939-9.787-3.939-15.49c0-17.579,14.301-31.88,31.88-31.88
		c4.315,0,8.476,0.84,12.391,2.499c0.419-0.435,0.834-0.776,1.218-1.043c-4.286-1.922-8.854-2.912-13.609-2.912
		c-18.382,0-33.338,14.954-33.338,33.336c0,7.971,2.488,14.978,7.36,20.854c-0.284,0.431-0.68,1.03-1.134,1.715
		c-5.335-6.285-8.174-14.055-8.174-22.568c0-19.457,15.829-35.286,35.286-35.286c5.168,0,10.132,1.1,14.774,3.245
		c-0.193,0.421-0.383,0.833-0.574,1.246c0.427-0.241,0.787-0.385,1.032-0.468c0.003,0.017,0.003,0.024,0.003,0.043
		c0,0.542-0.105,1.582-0.735,2.815l0.165,0.08l2.039-4.42L81.189,34.333"/>
	<path clip-path="url(#SVGID_2_)" fill="#00685C" d="M80.863,27.131l-3.513,4.441c0.321,0.111,0.643,0.226,0.962,0.345l3.486-4.41
		C81.488,27.378,81.177,27.253,80.863,27.131"/>
	<path clip-path="url(#SVGID_2_)" fill="#00685C" d="M73.987,25.084l-2.048,5.072c0.323,0.06,0.646,0.122,0.967,0.189l2.04-5.052
		C74.627,25.22,74.308,25.151,73.987,25.084"/>
	<path clip-path="url(#SVGID_2_)" fill="#00685C" d="M65.811,24.17l-0.504,5.376c0.324,0.002,0.647,0.006,0.971,0.017l0.502-5.366
		C66.457,24.184,66.134,24.175,65.811,24.17"/>
	<path clip-path="url(#SVGID_2_)" fill="#00685C" d="M57.842,24.777l1.021,5.288c0.318-0.054,0.637-0.103,0.957-0.147l-1.023-5.293
		C58.478,24.672,58.159,24.724,57.842,24.777"/>
	<path clip-path="url(#SVGID_2_)" fill="#00685C" d="M50.109,26.852l2.417,4.852c0.307-0.108,0.615-0.214,0.925-0.313l-2.425-4.866
		C50.72,26.63,50.414,26.739,50.109,26.852"/>
	<path clip-path="url(#SVGID_2_)" fill="#00685C" d="M42.775,30.4l3.609,4.121c0.286-0.164,0.575-0.324,0.865-0.48l-3.628-4.142
		C43.337,30.063,43.055,30.23,42.775,30.4"/>
	<path clip-path="url(#SVGID_2_)" fill="#00685C" d="M36.111,35.372l4.555,3.165c0.256-0.217,0.515-0.431,0.775-0.641l-4.585-3.185
		C36.605,34.929,36.357,35.149,36.111,35.372"/>
	<path clip-path="url(#SVGID_2_)" fill="#00685C" d="M30.442,41.617l5.233,2.036c0.213-0.265,0.431-0.526,0.651-0.785l-5.273-2.052
		C30.846,41.081,30.643,41.348,30.442,41.617"/>
	<path clip-path="url(#SVGID_2_)" fill="#00685C" d="M26.063,48.887l5.632,0.785c0.162-0.305,0.328-0.607,0.498-0.907l-5.682-0.792
		C26.358,48.275,26.209,48.58,26.063,48.887"/>
	<path clip-path="url(#SVGID_2_)" fill="#00685C" d="M23.196,56.863l5.742-0.549c0.104-0.336,0.21-0.671,0.322-1.003l-5.8,0.555
		C23.368,56.197,23.28,56.529,23.196,56.863"/>
	<path clip-path="url(#SVGID_2_)" fill="#00685C" d="M21.953,65.219l5.554-1.931c0.039-0.358,0.083-0.716,0.132-1.071l-5.621,1.954
		C21.992,64.519,21.97,64.868,21.953,65.219"/>
	<path clip-path="url(#SVGID_2_)" fill="#00685C" d="M22.383,73.655l5.018-3.294c-0.028-0.369-0.053-0.739-0.07-1.111l-5.097,3.348
		C22.279,72.951,22.329,73.304,22.383,73.655"/>
	<path clip-path="url(#SVGID_2_)" fill="#00685C" d="M24.522,81.912l4.074-4.486c-0.101-0.374-0.192-0.751-0.281-1.129l-4.159,4.579
		C24.273,81.224,24.396,81.567,24.522,81.912"/>
	<path clip-path="url(#SVGID_2_)" fill="#00685C" d="M28.354,89.802l2.881-5.481c-0.18-0.356-0.36-0.713-0.528-1.075l-2.935,5.583
		C27.962,89.154,28.156,89.479,28.354,89.802"/>
	<path clip-path="url(#SVGID_2_)" fill="#00685C" d="M33.263,96.376l1.54-6.351c-0.255-0.336-0.505-0.675-0.748-1.018l-1.571,6.479
		C32.74,95.787,33,96.083,33.263,96.376"/>
	<path clip-path="url(#SVGID_2_)" fill="#00685C" d="M80.143,39.383c0.134,0.088,0.266,0.176,0.395,0.263
		c0.118-0.052,0.235-0.107,0.355-0.152c0.143-0.052,0.281-0.097,0.419-0.142c-0.299-0.195-0.577-0.415-0.844-0.648
		C80.376,38.923,80.267,39.149,80.143,39.383"/>
</g>
</svg>
